<svg width="28" height="28" viewBox="0 0 28 28" fill="none" xmlns="http://www.w3.org/2000/svg">
<path fill-rule="evenodd" clip-rule="evenodd" d="M9.34073 2.67539C9.24456 2.31671 9.00985 2.01092 8.68823 1.8253C8.3666 1.63968 7.98441 1.58942 7.62573 1.68559C7.26705 1.78175 6.96127 2.01647 6.77564 2.33809C6.59002 2.65972 6.53976 3.04191 6.63593 3.40059L6.99853 4.75299C7.0947 5.11167 7.32941 5.41745 7.65104 5.60308C7.97266 5.7887 8.35485 5.83895 8.71353 5.74279C9.07221 5.64662 9.378 5.41191 9.56362 5.09028C9.74924 4.76866 9.7995 4.38647 9.70333 4.02779L9.34073 2.67539ZM3.40053 6.63599C3.22262 6.58749 3.03689 6.57462 2.85399 6.5981C2.67109 6.62159 2.49464 6.68098 2.33476 6.77286C2.17488 6.86474 2.03472 6.9873 1.92234 7.1335C1.80997 7.2797 1.72758 7.44666 1.67991 7.6248C1.63224 7.80293 1.62023 7.98872 1.64458 8.17151C1.66892 8.3543 1.72913 8.53047 1.82175 8.68992C1.91438 8.84937 2.03759 8.98895 2.18431 9.10065C2.33104 9.21234 2.49838 9.29395 2.67673 9.34079L4.02913 9.70339C4.38716 9.79741 4.76786 9.74581 5.08795 9.55987C5.40803 9.37393 5.64145 9.06879 5.73714 8.7112C5.83283 8.35361 5.783 7.97268 5.59856 7.65173C5.41412 7.33078 5.11007 7.09594 4.75293 6.99859L3.40053 6.63599ZM15.7401 5.83939C15.8701 5.70931 15.9732 5.55491 16.0435 5.385C16.1138 5.21508 16.15 5.03298 16.1499 4.84909C16.1498 4.6652 16.1136 4.48313 16.0431 4.31326C15.9727 4.1434 15.8695 3.98907 15.7394 3.85909C15.6094 3.7291 15.455 3.62601 15.285 3.5557C15.1151 3.48539 14.933 3.44924 14.7491 3.4493C14.5652 3.44937 14.3832 3.48565 14.2133 3.55608C14.0434 3.62651 13.8891 3.72971 13.7591 3.85979L12.7693 4.84959C12.6393 4.97966 12.5361 5.13408 12.4657 5.30403C12.3953 5.47398 12.3591 5.65613 12.3591 5.84009C12.3591 6.02404 12.3953 6.20619 12.4657 6.37614C12.5361 6.54609 12.6393 6.70051 12.7693 6.83059C12.8994 6.96066 13.0538 7.06384 13.2238 7.13424C13.3937 7.20463 13.5759 7.24087 13.7598 7.24087C13.9438 7.24087 14.1259 7.20463 14.2959 7.13424C14.4658 7.06384 14.6203 6.96066 14.7503 6.83059L15.7401 5.83939ZM5.84073 15.7402L6.83053 14.7504C7.09341 14.4879 7.24125 14.1317 7.24151 13.7602C7.24177 13.3887 7.09444 13.0323 6.83193 12.7694C6.56942 12.5065 6.21323 12.3587 5.84172 12.3584C5.47021 12.3581 5.11381 12.5055 4.85093 12.768L3.85973 13.7578C3.59703 14.0205 3.44945 14.3768 3.44945 14.7483C3.44945 15.1198 3.59703 15.4761 3.85973 15.7388C4.12243 16.0015 4.47872 16.1491 4.85023 16.1491C5.22174 16.1491 5.57803 16.0015 5.84073 15.7388V15.7402ZM10.3207 8.50079C10.0663 8.39895 9.7876 8.37402 9.51915 8.42909C9.25069 8.48416 9.0043 8.6168 8.81053 8.81058C8.61675 9.00436 8.4841 9.25075 8.42903 9.5192C8.37396 9.78766 8.39889 10.0664 8.50073 10.3208L14.1007 24.3208C14.2011 24.5714 14.3717 24.7876 14.5921 24.9434C14.8124 25.0993 15.0732 25.1881 15.3429 25.1992C15.6125 25.2103 15.8797 25.1432 16.1121 25.006C16.3445 24.8687 16.5324 24.6673 16.6529 24.4258L18.5849 20.5632L22.8101 24.7912C23.0728 25.0537 23.429 25.2011 23.8004 25.201C24.1718 25.2008 24.5279 25.0532 24.7904 24.7905C25.0529 24.5278 25.2003 24.1716 25.2002 23.8002C25.2001 23.4288 25.0524 23.0727 24.7897 22.8102L20.5631 18.5822L24.4271 16.6516C24.6682 16.5307 24.8691 16.3428 25.0059 16.1105C25.1427 15.8781 25.2095 15.6112 25.1983 15.3418C25.1871 15.0724 25.0983 14.812 24.9426 14.5918C24.7869 14.3717 24.571 14.2012 24.3207 14.1008L10.3207 8.50079Z" fill="white"/>
</svg>
