<svg width="1440" height="455" viewBox="0 0 1440 455" fill="none" xmlns="http://www.w3.org/2000/svg">
<path d="M0 333.997C259 149 798.5 362.5 1440 333.997V454.997H0V333.997Z" fill="#025F2D"/>
<g filter="url(#filter0_ddd_33_81)">
<mask id="path-2-inside-1_33_81" fill="white">
<path d="M926.828 343.435V196.759L911.391 183.872H926.828V138.255H917.355L926.828 129.482V75.4436H920.864V71.5836H924.723L926.828 70.1801V60.7057L924.723 59.3021V54.7404H929.635V51.2314L929.986 45.2661L931.038 40.3535L932.442 36.8445L934.547 33.6864L937.353 30.8792L941.213 28.4229L946.475 26.6684V9.12341H940.16V5.6144H946.475V0H952.44V5.6144H957.352V9.12341H952.44V26.6684L956.65 28.072L960.509 29.8265L964.018 32.9846L966.123 36.1427L967.526 40.3535L968.578 43.5116L969.28 47.3715V54.7404H973.49L975.244 59.3021H971.385V68.7765L973.49 71.5836H975.244V75.4436H971.385V129.482L979.455 138.255H973.49V149.484H1100.5V138.255H1093.83L1100.5 129.482V75.4436H1095.23V71.5836L1097.69 70.1801L1100.5 68.7765V59.3021H1095.23V54.7404H1100.5L1100.85 42.8098L1102.6 37.5463L1105.06 33.3355L1109.97 28.4229L1117.69 25.2648V9.12341H1113.13V5.6144H1117.69V0H1122.95V5.6144H1128.21V9.12341H1122.95V25.2648L1125.05 25.9666L1131.37 28.4229L1134.88 31.2301L1138.39 35.7918L1140.49 39.6517L1142.6 43.8625L1144.7 54.7404H1147.86V59.3021H1144.7V68.7765L1149.26 70.1801V74.3909H1144.7V129.482L1154.52 138.255H1144.7L1145.75 183.872H1163.3L1145.75 194.048V343.435H926.828Z"/>
</mask>
<path d="M926.828 343.435V196.759L911.391 183.872H926.828V138.255H917.355L926.828 129.482V75.4436H920.864V71.5836H924.723L926.828 70.1801V60.7057L924.723 59.3021V54.7404H929.635V51.2314L929.986 45.2661L931.038 40.3535L932.442 36.8445L934.547 33.6864L937.353 30.8792L941.213 28.4229L946.475 26.6684V9.12341H940.16V5.6144H946.475V0H952.44V5.6144H957.352V9.12341H952.44V26.6684L956.65 28.072L960.509 29.8265L964.018 32.9846L966.123 36.1427L967.526 40.3535L968.578 43.5116L969.28 47.3715V54.7404H973.49L975.244 59.3021H971.385V68.7765L973.49 71.5836H975.244V75.4436H971.385V129.482L979.455 138.255H973.49V149.484H1100.5V138.255H1093.83L1100.5 129.482V75.4436H1095.23V71.5836L1097.69 70.1801L1100.5 68.7765V59.3021H1095.23V54.7404H1100.5L1100.85 42.8098L1102.6 37.5463L1105.06 33.3355L1109.97 28.4229L1117.69 25.2648V9.12341H1113.13V5.6144H1117.69V0H1122.95V5.6144H1128.21V9.12341H1122.95V25.2648L1125.05 25.9666L1131.37 28.4229L1134.88 31.2301L1138.39 35.7918L1140.49 39.6517L1142.6 43.8625L1144.7 54.7404H1147.86V59.3021H1144.7V68.7765L1149.26 70.1801V74.3909H1144.7V129.482L1154.52 138.255H1144.7L1145.75 183.872H1163.3L1145.75 194.048V343.435H926.828Z" stroke="#FFCC16" stroke-width="1000" shape-rendering="crispEdges" mask="url(#path-2-inside-1_33_81)"/>
</g>
<mask id="path-3-inside-2_33_81" fill="white">
<path d="M941.901 65.7175V100.922H959.503V65.7175C959.115 64.2383 958.728 63.455 957.548 62.1971C956.813 61.4636 956.241 61.1108 954.81 60.6325C953.374 60.1755 953.245 60.2413 950.898 60.2413C949.333 60.2413 948.472 60.181 946.986 60.6325C945.774 60.8462 945.083 61.1778 943.857 62.1971C942.764 63.1655 942.358 63.9598 941.901 65.7175Z"/>
</mask>
<path d="M941.901 100.922H841.901V200.922H941.901V100.922ZM941.901 65.7175L845.108 40.5965L841.901 52.9523V65.7175H941.901ZM943.857 62.1971L879.908 -14.6827L878.711 -13.6866L877.545 -12.6538L943.857 62.1971ZM946.986 60.6325L964.349 159.114L970.291 158.066L976.065 156.311L946.986 60.6325ZM950.898 60.2413L950.898 -39.7587H950.898V60.2413ZM954.81 60.6325L986.507 -34.2108L985.823 -34.4394L985.136 -34.6581L954.81 60.6325ZM957.548 62.1971L1030.48 -6.21828L1029.37 -7.4036L1028.22 -8.55217L957.548 62.1971ZM959.503 65.7175H1059.5V52.8106L1056.23 40.3266L959.503 65.7175ZM959.503 100.922V200.922H1059.5V100.922H959.503ZM1041.9 100.922V65.7175H841.901V100.922H1041.9ZM1038.69 90.8385C1038.28 92.4334 1036.04 101.295 1030.35 111.685C1023.74 123.772 1015.8 132.058 1010.17 137.048L877.545 -12.6538C870.819 -6.69543 862.135 2.47217 854.927 15.6376C848.647 27.1065 845.978 37.2439 845.108 40.5965L1038.69 90.8385ZM1007.81 139.077C1005.87 140.69 999.475 145.927 989.881 150.688C979.196 155.991 969.781 158.156 964.349 159.114L929.624 -37.8487C922.979 -36.6772 912.613 -34.2398 900.972 -28.463C890.423 -23.2276 883.073 -17.3154 879.908 -14.6827L1007.81 139.077ZM976.065 156.311C973.208 157.18 969.869 158.036 966.112 158.728C962.307 159.428 958.835 159.82 955.827 160.028C953.034 160.222 950.908 160.235 950.267 160.238C949.946 160.239 949.721 160.238 949.906 160.239C949.98 160.239 950.43 160.241 950.898 160.241V-39.7587C950.975 -39.7587 951.055 -39.7582 950.778 -39.7594C950.61 -39.7602 950.049 -39.7629 949.404 -39.7601C948.116 -39.7546 945.387 -39.728 941.998 -39.4931C933.888 -38.931 925.866 -37.465 917.908 -35.0464L976.065 156.311ZM950.898 160.241C951.413 160.241 951.856 160.239 952.074 160.239C952.391 160.237 952.243 160.238 952.032 160.238C951.862 160.237 948.954 160.248 945.169 159.943C940.529 159.569 935.89 158.85 931.345 157.797C927.601 156.929 924.818 156.03 924.483 155.923L985.136 -34.6581C984.083 -34.9934 980.746 -36.0555 976.5 -37.0394C971.454 -38.2088 966.366 -38.9976 961.222 -39.4118C956.932 -39.7572 953.461 -39.7591 952.563 -39.7615C951.987 -39.763 951.433 -39.7604 951.288 -39.7598C951.044 -39.7589 950.969 -39.7587 950.898 -39.7587L950.898 160.241ZM923.112 155.476C921.217 154.842 914.417 152.542 906.323 147.854C897.013 142.462 890.523 136.59 886.876 132.946L1028.22 -8.55217C1023.84 -12.9293 1016.69 -19.3448 1006.56 -25.2159C997.635 -30.383 989.834 -33.0991 986.507 -34.2108L923.112 155.476ZM884.614 130.613C881.913 127.733 876.224 121.294 870.997 111.694C865.778 102.108 863.519 93.9214 862.781 91.1084L1056.23 40.3266C1055.1 36.0344 1052.45 26.7164 1046.65 16.0548C1040.83 5.37842 1034.36 -2.0808 1030.48 -6.21828L884.614 130.613ZM859.503 65.7175V100.922H1059.5V65.7175H859.503ZM959.503 0.921608H941.901V200.922H959.503V0.921608Z" fill="#65350A" mask="url(#path-3-inside-2_33_81)"/>
<mask id="path-5-inside-3_33_81" fill="white">
<path d="M941.901 115.786V150.99H959.503V115.786C959.115 114.306 958.728 113.523 957.548 112.265C956.813 111.532 956.241 111.179 954.81 110.701C953.374 110.244 953.245 110.309 950.898 110.309C949.333 110.309 948.472 110.249 946.986 110.701C945.774 110.914 945.083 111.246 943.857 112.265C942.764 113.234 942.358 114.028 941.901 115.786Z"/>
</mask>
<path d="M941.901 150.99H841.901V250.99H941.901V150.99ZM941.901 115.786L845.108 90.6646L841.901 103.02V115.786H941.901ZM943.857 112.265L879.908 35.3854L878.711 36.3815L877.545 37.4143L943.857 112.265ZM946.986 110.701L964.349 209.182L970.291 208.134L976.065 206.38L946.986 110.701ZM950.898 110.309L950.898 10.3094H950.898V110.309ZM954.81 110.701L986.507 15.8573L985.823 15.6287L985.136 15.41L954.81 110.701ZM957.548 112.265L1030.48 43.8498L1029.37 42.6645L1028.22 41.5159L957.548 112.265ZM959.503 115.786H1059.5V102.879L1056.23 90.3948L959.503 115.786ZM959.503 150.99V250.99H1059.5V150.99H959.503ZM1041.9 150.99V115.786H841.901V150.99H1041.9ZM1038.69 140.907C1038.28 142.501 1036.04 151.363 1030.35 161.753C1023.74 173.84 1015.8 182.126 1010.17 187.116L877.545 37.4143C870.819 43.3727 862.135 52.5403 854.927 65.7057C848.647 77.1746 845.978 87.312 845.108 90.6646L1038.69 140.907ZM1007.81 189.145C1005.87 190.758 999.475 195.995 989.881 200.756C979.196 206.059 969.781 208.224 964.349 209.182L929.624 12.2195C922.979 13.3909 912.613 15.8283 900.972 21.6052C890.423 26.8406 883.073 32.7527 879.908 35.3854L1007.81 189.145ZM976.065 206.38C973.208 207.248 969.869 208.104 966.112 208.796C962.307 209.496 958.835 209.888 955.827 210.096C953.034 210.29 950.908 210.303 950.267 210.306C949.946 210.308 949.721 210.306 949.906 210.307C949.98 210.307 950.43 210.309 950.898 210.309V10.3094C950.975 10.3094 951.055 10.3099 950.778 10.3087C950.61 10.308 950.049 10.3052 949.404 10.308C948.116 10.3136 945.387 10.3401 941.998 10.5751C933.888 11.1372 925.866 12.6031 917.908 15.0217L976.065 206.38ZM950.898 210.309C951.413 210.309 951.856 210.308 952.074 210.307C952.391 210.305 952.243 210.307 952.032 210.306C951.862 210.305 948.954 210.316 945.169 210.011C940.529 209.637 935.89 208.918 931.345 207.865C927.601 206.997 924.818 206.098 924.483 205.991L985.136 15.41C984.083 15.0748 980.746 14.0127 976.5 13.0287C971.454 11.8593 966.366 11.0705 961.222 10.6563C956.932 10.3109 953.461 10.309 952.563 10.3067C951.987 10.3051 951.433 10.3077 951.288 10.3083C951.044 10.3092 950.969 10.3094 950.898 10.3094L950.898 210.309ZM923.112 205.544C921.217 204.91 914.417 202.61 906.323 197.922C897.013 192.53 890.523 186.658 886.876 183.015L1028.22 41.5159C1023.84 37.1388 1016.69 30.7233 1006.56 24.8523C997.635 19.6851 989.834 16.969 986.507 15.8573L923.112 205.544ZM884.614 180.681C881.913 177.801 876.224 171.362 870.997 161.762C865.778 152.176 863.519 143.989 862.781 141.177L1056.23 90.3948C1055.1 86.1026 1052.45 76.7846 1046.65 66.1229C1040.83 55.4465 1034.36 47.9873 1030.48 43.8498L884.614 180.681ZM859.503 115.786V150.99H1059.5V115.786H859.503ZM959.503 50.9897H941.901V250.99H959.503V50.9897Z" fill="#65350A" mask="url(#path-5-inside-3_33_81)"/>
<mask id="path-7-inside-4_33_81" fill="white">
<path d="M941.901 289.957V343.435H959.112V289.957C958.733 287.709 958.354 286.52 957.2 284.609C956.482 283.494 955.922 282.958 954.523 282.232C953.119 281.538 952.993 281.638 950.698 281.638C949.168 281.638 948.326 281.546 946.873 282.232C945.688 282.556 945.012 283.06 943.814 284.609C942.745 286.08 942.347 287.286 941.901 289.957Z"/>
</mask>
<path d="M941.901 343.435H841.901V443.435H941.901V343.435ZM941.901 289.957L843.268 273.48L841.901 281.662V289.957H941.901ZM943.814 284.609L864.726 223.411L863.801 224.607L862.911 225.831L943.814 284.609ZM946.873 282.232L973.292 378.679L981.693 376.378L989.57 372.658L946.873 282.232ZM950.698 281.638L950.698 181.638H950.698V281.638ZM954.523 282.232L1000.61 193.483L999.73 193.028L998.845 192.591L954.523 282.232ZM957.2 284.609L1042.81 232.921L1042.05 231.671L1041.26 230.444L957.2 284.609ZM959.112 289.957H1059.11V281.568L1057.71 273.296L959.112 289.957ZM959.112 343.435V443.435H1059.11V343.435H959.112ZM1041.9 343.435V289.957H841.901V343.435H1041.9ZM1040.53 306.433C1040.52 306.523 1039.61 312.481 1036.94 320.07C1033.59 329.58 1029.05 337.414 1024.72 343.386L862.911 225.831C848.636 245.48 844.795 264.339 843.268 273.48L1040.53 306.433ZM1022.9 345.807C1021.93 347.059 1016.18 354.619 1006.41 362.155C994.3 371.491 982.175 376.246 973.292 378.679L920.455 185.784C910.386 188.543 897.33 193.712 884.288 203.768C873.581 212.023 866.894 220.61 864.726 223.411L1022.9 345.807ZM989.57 372.658C985.719 374.477 980.959 376.395 975.372 377.993C969.663 379.626 964.289 380.583 959.464 381.103C954.986 381.585 951.519 381.624 950.329 381.632C949.738 381.636 949.291 381.631 949.477 381.633C949.491 381.633 950.084 381.638 950.698 381.638V181.638C950.93 181.638 951.162 181.64 950.831 181.637C950.672 181.636 949.897 181.63 948.989 181.636C947.166 181.648 943.111 181.707 938.05 182.252C925.79 183.573 914.443 186.958 904.177 191.805L989.57 372.658ZM950.698 381.638C951.33 381.638 951.868 381.634 952.074 381.633C952.433 381.631 952.087 381.634 951.653 381.632C951.166 381.63 946.502 381.648 940.531 380.901C933.244 379.989 926.273 378.271 919.778 375.933C914.511 374.036 910.663 372.102 910.2 371.873L998.845 192.591C997.68 192.015 993.29 189.832 987.533 187.759C980.548 185.244 973.138 183.421 965.358 182.448C958.893 181.639 953.679 181.639 952.479 181.634C951.689 181.63 950.946 181.636 950.853 181.636C950.608 181.638 950.64 181.638 950.698 181.638L950.698 381.638ZM908.44 370.981C905.335 369.368 897.615 365.158 889.229 357.612C880.489 349.748 875.281 342.097 873.139 338.774L1041.26 230.444C1038.4 226.006 1032.55 217.53 1023 208.938C1013.81 200.664 1005.11 195.822 1000.61 193.483L908.44 370.981ZM871.594 336.296C869.794 333.315 866.709 327.748 864.074 320.23C861.622 313.235 860.693 307.703 860.51 306.617L1057.71 273.296C1055.67 261.213 1051.67 247.602 1042.81 232.921L871.594 336.296ZM859.112 289.957V343.435H1059.11V289.957H859.112ZM959.112 243.435H941.901V443.435H959.112V243.435Z" fill="#65350A" mask="url(#path-7-inside-4_33_81)"/>
<mask id="path-9-inside-5_33_81" fill="white">
<path d="M1113.23 289.957V343.435H1130.44V289.957C1130.06 287.709 1129.68 286.52 1128.53 284.609C1127.81 283.494 1127.25 282.958 1125.85 282.232C1124.45 281.538 1124.32 281.638 1122.02 281.638C1120.49 281.638 1119.65 281.546 1118.2 282.232C1117.01 282.556 1116.34 283.06 1115.14 284.609C1114.07 286.08 1113.67 287.286 1113.23 289.957Z"/>
</mask>
<path d="M1113.23 343.435H1013.23V443.435H1113.23V343.435ZM1113.23 289.957L1014.59 273.48L1013.23 281.662V289.957H1113.23ZM1115.14 284.609L1036.05 223.411L1035.13 224.607L1034.24 225.831L1115.14 284.609ZM1118.2 282.232L1144.62 378.679L1153.02 376.378L1160.9 372.658L1118.2 282.232ZM1122.02 281.638L1122.02 181.638H1122.02V281.638ZM1125.85 282.232L1171.93 193.483L1171.06 193.028L1170.17 192.591L1125.85 282.232ZM1128.53 284.609L1214.13 232.921L1213.38 231.671L1212.59 230.444L1128.53 284.609ZM1130.44 289.957H1230.44V281.568L1229.04 273.296L1130.44 289.957ZM1130.44 343.435V443.435H1230.44V343.435H1130.44ZM1213.23 343.435V289.957H1013.23V343.435H1213.23ZM1211.86 306.433C1211.85 306.523 1210.94 312.481 1208.27 320.07C1204.91 329.58 1200.38 337.414 1196.04 343.386L1034.24 225.831C1019.96 245.48 1016.12 264.339 1014.59 273.48L1211.86 306.433ZM1194.23 345.807C1193.26 347.059 1187.51 354.619 1177.74 362.155C1165.63 371.491 1153.5 376.246 1144.62 378.679L1091.78 185.784C1081.71 188.543 1068.66 193.712 1055.61 203.768C1044.91 212.023 1038.22 220.61 1036.05 223.411L1194.23 345.807ZM1160.9 372.658C1157.05 374.477 1152.29 376.395 1146.7 377.993C1140.99 379.626 1135.62 380.583 1130.79 381.103C1126.31 381.585 1122.85 381.624 1121.66 381.632C1121.06 381.636 1120.62 381.631 1120.8 381.633C1120.82 381.633 1121.41 381.638 1122.02 381.638V181.638C1122.26 181.638 1122.49 181.64 1122.16 181.637C1122 181.636 1121.22 181.63 1120.32 181.636C1118.49 181.648 1114.44 181.707 1109.38 182.252C1097.12 183.573 1085.77 186.958 1075.5 191.805L1160.9 372.658ZM1122.02 381.638C1122.66 381.638 1123.19 381.634 1123.4 381.633C1123.76 381.631 1123.41 381.634 1122.98 381.632C1122.49 381.63 1117.83 381.648 1111.86 380.901C1104.57 379.989 1097.6 378.271 1091.1 375.933C1085.84 374.036 1081.99 372.102 1081.53 371.873L1170.17 192.591C1169.01 192.015 1164.62 189.832 1158.86 187.759C1151.87 185.244 1144.46 183.421 1136.68 182.448C1130.22 181.639 1125.01 181.639 1123.81 181.634C1123.02 181.63 1122.27 181.636 1122.18 181.636C1121.93 181.638 1121.97 181.638 1122.02 181.638L1122.02 381.638ZM1079.77 370.981C1076.66 369.368 1068.94 365.158 1060.56 357.612C1051.82 349.748 1046.61 342.097 1044.47 338.774L1212.59 230.444C1209.73 226.006 1203.88 217.53 1194.33 208.938C1185.14 200.664 1176.44 195.822 1171.93 193.483L1079.77 370.981ZM1042.92 336.296C1041.12 333.315 1038.04 327.748 1035.4 320.23C1032.95 313.235 1032.02 307.703 1031.84 306.617L1229.04 273.296C1227 261.213 1223 247.602 1214.13 232.921L1042.92 336.296ZM1030.44 289.957V343.435H1230.44V289.957H1030.44ZM1130.44 243.435H1113.23V443.435H1130.44V243.435Z" fill="#65350A" mask="url(#path-9-inside-5_33_81)"/>
<mask id="path-11-inside-6_33_81" fill="white">
<path d="M1113.23 115.786V150.99H1130.83V115.786C1130.44 114.306 1130.05 113.523 1128.87 112.265C1128.14 111.532 1127.57 111.179 1126.14 110.701C1124.7 110.244 1124.57 110.309 1122.22 110.309C1120.66 110.309 1119.8 110.249 1118.31 110.701C1117.1 110.914 1116.41 111.246 1115.18 112.265C1114.09 113.234 1113.68 114.028 1113.23 115.786Z"/>
</mask>
<path d="M1113.23 150.99H1013.23V250.99H1113.23V150.99ZM1113.23 115.786L1016.43 90.6646L1013.23 103.02V115.786H1113.23ZM1115.18 112.265L1051.23 35.3854L1050.04 36.3815L1048.87 37.4143L1115.18 112.265ZM1118.31 110.701L1135.68 209.182L1141.62 208.134L1147.39 206.38L1118.31 110.701ZM1122.22 110.309L1122.22 10.3094H1122.22V110.309ZM1126.14 110.701L1157.83 15.8573L1157.15 15.6287L1156.46 15.41L1126.14 110.701ZM1128.87 112.265L1201.81 43.8498L1200.7 42.6645L1199.55 41.5159L1128.87 112.265ZM1130.83 115.786H1230.83V102.879L1227.55 90.3948L1130.83 115.786ZM1130.83 150.99V250.99H1230.83V150.99H1130.83ZM1213.23 150.99V115.786H1013.23V150.99H1213.23ZM1210.02 140.907C1209.61 142.501 1207.37 151.363 1201.68 161.753C1195.06 173.84 1187.13 182.126 1181.5 187.116L1048.87 37.4143C1042.15 43.3727 1033.46 52.5403 1026.25 65.7057C1019.97 77.1746 1017.3 87.312 1016.43 90.6646L1210.02 140.907ZM1179.13 189.145C1177.19 190.758 1170.8 195.995 1161.21 200.756C1150.52 206.059 1141.11 208.224 1135.68 209.182L1100.95 12.2195C1094.31 13.3909 1083.94 15.8283 1072.3 21.6052C1061.75 26.8406 1054.4 32.7527 1051.23 35.3854L1179.13 189.145ZM1147.39 206.38C1144.53 207.248 1141.2 208.104 1137.44 208.796C1133.63 209.496 1130.16 209.888 1127.15 210.096C1124.36 210.29 1122.23 210.303 1121.59 210.306C1121.27 210.308 1121.05 210.306 1121.23 210.307C1121.31 210.307 1121.76 210.309 1122.22 210.309V10.3094C1122.3 10.3094 1122.38 10.3099 1122.1 10.3087C1121.94 10.308 1121.38 10.3052 1120.73 10.308C1119.44 10.3136 1116.71 10.3401 1113.32 10.5751C1105.21 11.1372 1097.19 12.6031 1089.23 15.0217L1147.39 206.38ZM1122.22 210.309C1122.74 210.309 1123.18 210.308 1123.4 210.307C1123.72 210.305 1123.57 210.307 1123.36 210.306C1123.19 210.305 1120.28 210.316 1116.5 210.011C1111.86 209.637 1107.22 208.918 1102.67 207.865C1098.93 206.997 1096.14 206.098 1095.81 205.991L1156.46 15.41C1155.41 15.0748 1152.07 14.0127 1147.83 13.0287C1142.78 11.8593 1137.69 11.0705 1132.55 10.6563C1128.26 10.3109 1124.79 10.309 1123.89 10.3067C1123.31 10.3051 1122.76 10.3077 1122.61 10.3083C1122.37 10.3092 1122.3 10.3094 1122.22 10.3094L1122.22 210.309ZM1094.44 205.544C1092.54 204.91 1085.74 202.61 1077.65 197.922C1068.34 192.53 1061.85 186.658 1058.2 183.015L1199.55 41.5159C1195.16 37.1388 1188.02 30.7233 1177.88 24.8523C1168.96 19.6851 1161.16 16.969 1157.83 15.8573L1094.44 205.544ZM1055.94 180.681C1053.24 177.801 1047.55 171.362 1042.32 161.762C1037.1 152.176 1034.85 143.989 1034.11 141.177L1227.55 90.3948C1226.43 86.1026 1223.78 76.7846 1217.97 66.1229C1212.16 55.4465 1205.69 47.9873 1201.81 43.8498L1055.94 180.681ZM1030.83 115.786V150.99H1230.83V115.786H1030.83ZM1130.83 50.9897H1113.23V250.99H1130.83V50.9897Z" fill="#65350A" mask="url(#path-11-inside-6_33_81)"/>
<mask id="path-13-inside-7_33_81" fill="white">
<path d="M1113.23 65.7175V100.922H1130.83V65.7175C1130.44 64.2383 1130.05 63.455 1128.87 62.1971C1128.14 61.4636 1127.57 61.1108 1126.14 60.6325C1124.7 60.1755 1124.57 60.2413 1122.22 60.2413C1120.66 60.2413 1119.8 60.181 1118.31 60.6325C1117.1 60.8462 1116.41 61.1778 1115.18 62.1971C1114.09 63.1655 1113.68 63.9598 1113.23 65.7175Z"/>
</mask>
<path d="M1113.23 100.922H1013.23V200.922H1113.23V100.922ZM1113.23 65.7175L1016.43 40.5965L1013.23 52.9523V65.7175H1113.23ZM1115.18 62.1971L1051.23 -14.6827L1050.04 -13.6866L1048.87 -12.6538L1115.18 62.1971ZM1118.31 60.6325L1135.68 159.114L1141.62 158.066L1147.39 156.311L1118.31 60.6325ZM1122.22 60.2413L1122.22 -39.7587H1122.22V60.2413ZM1126.14 60.6325L1157.83 -34.2108L1157.15 -34.4394L1156.46 -34.6581L1126.14 60.6325ZM1128.87 62.1971L1201.81 -6.21828L1200.7 -7.4036L1199.55 -8.55217L1128.87 62.1971ZM1130.83 65.7175H1230.83V52.8106L1227.55 40.3266L1130.83 65.7175ZM1130.83 100.922V200.922H1230.83V100.922H1130.83ZM1213.23 100.922V65.7175H1013.23V100.922H1213.23ZM1210.02 90.8385C1209.61 92.4334 1207.37 101.295 1201.68 111.685C1195.06 123.772 1187.13 132.058 1181.5 137.048L1048.87 -12.6538C1042.15 -6.69543 1033.46 2.47217 1026.25 15.6376C1019.97 27.1065 1017.3 37.2439 1016.43 40.5965L1210.02 90.8385ZM1179.13 139.077C1177.19 140.69 1170.8 145.927 1161.21 150.688C1150.52 155.991 1141.11 158.156 1135.68 159.114L1100.95 -37.8487C1094.31 -36.6772 1083.94 -34.2398 1072.3 -28.463C1061.75 -23.2276 1054.4 -17.3154 1051.23 -14.6827L1179.13 139.077ZM1147.39 156.311C1144.53 157.18 1141.2 158.036 1137.44 158.728C1133.63 159.428 1130.16 159.82 1127.15 160.028C1124.36 160.222 1122.23 160.235 1121.59 160.238C1121.27 160.239 1121.05 160.238 1121.23 160.239C1121.31 160.239 1121.76 160.241 1122.22 160.241V-39.7587C1122.3 -39.7587 1122.38 -39.7582 1122.1 -39.7594C1121.94 -39.7602 1121.38 -39.7629 1120.73 -39.7601C1119.44 -39.7546 1116.71 -39.728 1113.32 -39.4931C1105.21 -38.931 1097.19 -37.465 1089.23 -35.0464L1147.39 156.311ZM1122.22 160.241C1122.74 160.241 1123.18 160.239 1123.4 160.239C1123.72 160.237 1123.57 160.238 1123.36 160.238C1123.19 160.237 1120.28 160.248 1116.5 159.943C1111.86 159.569 1107.22 158.85 1102.67 157.797C1098.93 156.929 1096.14 156.03 1095.81 155.923L1156.46 -34.6581C1155.41 -34.9934 1152.07 -36.0555 1147.83 -37.0394C1142.78 -38.2088 1137.69 -38.9976 1132.55 -39.4118C1128.26 -39.7572 1124.79 -39.7591 1123.89 -39.7615C1123.31 -39.763 1122.76 -39.7604 1122.61 -39.7598C1122.37 -39.7589 1122.3 -39.7587 1122.22 -39.7587L1122.22 160.241ZM1094.44 155.476C1092.54 154.842 1085.74 152.542 1077.65 147.854C1068.34 142.462 1061.85 136.59 1058.2 132.946L1199.55 -8.55217C1195.16 -12.9293 1188.02 -19.3448 1177.88 -25.2159C1168.96 -30.383 1161.16 -33.0991 1157.83 -34.2108L1094.44 155.476ZM1055.94 130.613C1053.24 127.733 1047.55 121.294 1042.32 111.694C1037.1 102.108 1034.85 93.9214 1034.11 91.1084L1227.55 40.3266C1226.43 36.0344 1223.78 26.7164 1217.97 16.0548C1212.16 5.37842 1205.69 -2.0808 1201.81 -6.21828L1055.94 130.613ZM1030.83 65.7175V100.922H1230.83V65.7175H1030.83ZM1130.83 0.921608H1113.23V200.922H1130.83V0.921608Z" fill="#65350A" mask="url(#path-13-inside-7_33_81)"/>
<path d="M935.181 184.201L948.72 170.007L961.937 184.193L962.228 184.505L962.655 184.511L1015.82 185.235L1016.83 185.248V184.235V184.193C1016.83 180.361 1016.83 179.64 1017.59 175.825C1017.79 174.827 1017.87 174.242 1017.91 173.854C1017.93 173.663 1017.93 173.526 1017.94 173.427L1017.94 173.419C1017.94 173.315 1017.94 173.299 1017.94 173.287C1017.95 173.269 1017.96 173.201 1018.14 172.765C1018.23 172.547 1018.35 172.266 1018.52 171.885C1018.67 171.534 1018.86 171.098 1019.1 170.547C1019.28 170.12 1019.43 169.758 1019.56 169.443C1019.87 168.704 1020.08 168.218 1020.33 167.739C1020.67 167.095 1021.11 166.472 1022.07 165.317C1022.18 165.193 1022.27 165.077 1022.36 164.969C1023.15 164.024 1023.46 163.657 1023.83 163.318C1024.17 163.013 1024.56 162.74 1025.38 162.153C1025.6 161.996 1025.86 161.817 1026.15 161.608C1026.82 161.224 1027.26 160.955 1027.58 160.757C1027.7 160.678 1027.8 160.615 1027.88 160.563C1028.02 160.473 1028.11 160.416 1028.21 160.362C1028.44 160.228 1028.62 160.165 1029.84 159.758C1030.66 159.482 1031.2 159.298 1031.57 159.171C1032.01 159.016 1032.22 158.947 1032.4 158.9C1032.53 158.867 1032.65 158.848 1032.94 158.812C1032.99 158.806 1033.04 158.8 1033.09 158.794C1033.37 158.759 1033.76 158.711 1034.35 158.627C1035.9 158.432 1036.45 158.329 1036.71 158.264C1036.73 158.257 1036.76 158.251 1036.78 158.245C1036.81 158.245 1036.86 158.245 1036.95 158.245C1039.18 158.245 1039.81 158.246 1040.33 158.29C1040.56 158.31 1040.77 158.339 1041.12 158.386L1041.23 158.401C1041.63 158.455 1042.18 158.527 1043.02 158.621C1043.74 158.816 1044.31 158.964 1044.78 159.086C1045.75 159.338 1046.29 159.478 1046.79 159.685C1047.48 159.97 1048.06 160.373 1049.65 161.565C1051.23 162.751 1051.87 163.266 1052.31 163.722C1052.62 164.053 1052.82 164.342 1053.2 164.884C1053.35 165.095 1053.52 165.344 1053.74 165.649C1054.18 166.26 1054.5 166.683 1054.75 167.002C1054.78 167.049 1054.82 167.093 1054.85 167.136C1055.11 167.474 1055.23 167.651 1055.34 167.845C1055.56 168.252 1055.72 168.773 1056.28 170.65L1056.33 170.809C1056.57 171.791 1056.76 172.52 1056.91 173.089C1057.13 173.908 1057.25 174.397 1057.34 174.836C1057.46 175.508 1057.47 175.995 1057.47 177.585V177.668L1057.48 177.749C1057.68 178.93 1057.82 179.743 1057.94 180.341C1057.96 180.465 1057.98 180.578 1058 180.683C1058.07 181.09 1058.13 181.363 1058.16 181.6C1058.25 182.145 1058.25 182.455 1058.25 183.844V184.85L1059.25 184.843L1112.36 184.511L1112.73 184.509L1113.01 184.266L1127.25 171.903L1140.19 184.559L1140.49 184.849L1140.91 184.843L1160.37 184.56L1145.97 194.36L1145.54 194.658V195.187V196.143H1141.31L1127.99 182.805L1127.32 182.128L1126.61 182.772L1111.96 196.143H963.076L949.428 182.796L948.737 182.12L948.038 182.788L934.057 196.143H927.405L913.721 184.511H934.458H934.886L935.181 184.201Z" stroke="#65350A" stroke-width="2"/>
<circle cx="1037.34" cy="177.585" r="15.6463" fill="#65350A"/>
<circle cx="1037.34" cy="297.279" r="15.6463" fill="#65350A"/>
<path d="M1030.17 249.643L1029.83 211.984V211.174L1029.94 211.001L1030.08 210.723C1030.08 210.715 1030.09 210.708 1030.09 210.703C1030.11 210.677 1030.16 210.624 1030.26 210.522C1030.31 210.472 1030.36 210.418 1030.42 210.357C1030.5 210.357 1030.58 210.357 1030.69 210.357H1031.92C1032.02 210.428 1032.12 210.493 1032.22 210.553C1032.25 210.685 1032.28 210.797 1032.3 210.891C1032.31 210.924 1032.32 210.955 1032.33 210.983C1032.33 211.005 1032.34 211.024 1032.34 211.043V212.789V249.643H1030.17ZM1029.96 210.49C1029.96 210.49 1029.96 210.494 1029.96 210.502C1029.96 210.494 1029.96 210.49 1029.96 210.49ZM1032.78 209.921L1032.26 210.051L1032.78 209.921Z" stroke="#65350A" stroke-width="10"/>
<path d="M1045.82 250.034L1045.47 212.375V211.565L1045.59 211.392L1045.73 211.114C1045.73 211.106 1045.73 211.1 1045.74 211.094C1045.76 211.068 1045.81 211.015 1045.9 210.913C1045.95 210.863 1046 210.809 1046.06 210.749C1046.14 210.748 1046.23 210.748 1046.34 210.748H1047.56C1047.67 210.819 1047.77 210.884 1047.86 210.944C1047.9 211.076 1047.93 211.188 1047.95 211.283C1047.96 211.315 1047.97 211.346 1047.97 211.374C1047.98 211.396 1047.99 211.416 1047.99 211.434V213.18V250.034H1045.82ZM1045.61 210.881C1045.61 210.881 1045.61 210.886 1045.61 210.893C1045.61 210.885 1045.61 210.881 1045.61 210.881ZM1048.43 210.312L1047.9 210.442L1048.43 210.312Z" stroke="#65350A" stroke-width="10"/>
<circle cx="950.898" cy="231.173" r="9.77891" fill="#65350A"/>
<circle cx="1120.66" cy="231.173" r="9.77891" fill="#65350A"/>
<circle cx="950.898" cy="40.2891" r="5.86735" fill="#65350A"/>
<circle cx="1122.22" cy="40.2891" r="5.86735" fill="#65350A"/>
<path d="M1008.79 281.282V343.435H1067.85V281.282H1057.29L1038.13 267.551L1019.74 281.282H1008.79Z" stroke="#65350A" stroke-width="3"/>
<rect x="1021.7" y="293.367" width="31.2925" height="50.068" fill="#65350A"/>
<line x1="977.605" y1="197.143" x2="977.605" y2="345" stroke="black"/>
<line x1="1096.52" y1="196.361" x2="1096.52" y2="344.218" stroke="black"/>
<g filter="url(#filter1_ddd_33_81)">
<mask id="path-28-inside-8_33_81" fill="white">
<path d="M1019.62 87.716L1020.02 85.1371L1019.23 83.7356L1019 82.8386L1018.55 81.9416L1017.98 81.1567L1017.47 79.9794V78.9143V77.2324L1017.98 76.5597L1018.55 75.6627L1019.23 75.1021H1020.75L1021.54 75.6627L1022.16 76.5597L1022.96 78.1294L1023.3 79.4188V81.1567L1022.96 81.9416L1023.86 82.334L1024.71 82.6704L1025.5 83.4553V84.7447L1025.22 85.6417V86.9311L1024.71 87.8281L1025.05 88.8933L1025.22 90.407L1025.84 91.6964L1026.91 92.5934L1027.93 93.9389L1028.78 95.1162H1030.19L1030.76 93.9389V92.5934V91.1358L1031.32 89.6221L1032 88.3887L1032.96 87.4357L1033.75 86.4826L1034.71 85.6417L1036.07 85.2493H1037.26H1038.39L1039.86 85.6417L1040.82 86.4826L1041.33 87.4357L1041.72 88.6691L1042 90.0145L1042.29 90.7433V91.6964V92.5934V93.9389V94.7237V96.0132L1043.02 96.2374L1044.04 96.5738H1044.72L1045.73 96.2374L1046.86 96.0132L1047.71 95.3404L1048.45 94.7237L1049.41 93.9389L1050.14 93.2661L1050.59 92.3131V91.1358L1051.1 90.0145L1051.56 89.1736V87.8281L1051.84 86.1463L1052.06 84.7447L1051.84 83.4553L1051.56 81.9416V80.6522L1052.25 79.4188L1053.04 78.1294L1053.7 77.2324L1054.66 76.6718L1055.85 77.2324L1056.81 78.1294L1057.15 79.4188V81.9416V83.8477L1057.49 84.9129L1058.06 86.1463L1058.79 87.0433L1059.41 87.8281V88.8933L1059.13 90.0145L1058.06 91.9767L1057.15 94.3874L1056.87 95.7889L1056.47 97.1344L1056.02 98.4238L1055.34 99.8814L1054.32 102.068V104.479L1054.04 104.815V106.945V108.627L1054.32 109.02L1055.34 110.645L1056.19 112.047L1056.64 113.505V114.57L1056.19 115.971L1055.74 117.205L1054.89 118.046L1054.04 118.606L1053.08 118.774H1052.23H1051.72H1050.99L1050.37 118.382L1049.8 118.774V119.391L1049.35 120.344V121.802L1048.96 122.418L1048.79 123.427L1048.5 124.829L1048.05 125.334V126.231L1048.5 127.184L1048.96 127.968L1049.8 128.978L1050.71 130.155L1051.33 131.108L1052.01 132.061L1052.69 133.126L1053.08 134.135L1053.65 135.2L1053.99 136.266L1054.38 137.163V138.004V139.013V140.246L1054.16 141.479L1053.99 142.657L1053.65 144.058L1053.19 145.46L1052.86 146.189L1052.46 147.142V148.599H1024.82H1023.18L1023.58 147.534L1023.8 146.525L1023.97 145.292L1024.43 144.114L1024.82 143.049L1025.44 141.704L1025.95 140.358L1026.74 138.901L1027.31 137.667L1027.87 136.378L1028.55 135.481L1029.29 134.584L1029.96 133.631L1030.7 132.958V131.949L1030.19 131.164L1029.57 130.435H1028.78L1028.16 130.828L1027.31 131.164L1026.74 131.556L1025.95 131.949L1024.82 132.958L1023.97 133.631L1023.58 133.967L1022.67 134.36H1021.77L1020.58 133.631L1019.62 131.949V130.435V129.258L1018.83 128.249L1018.1 127.184L1017.59 125.614V124.829L1016.91 124.044L1016.23 123.091L1015.44 121.69V120.288L1015.72 119.167L1016.91 118.382L1018.1 116.924L1018.83 115.074L1019.62 112.832L1018.83 111.991L1018.1 110.589V108.235V105.488L1018.83 103.077L1019.62 101.227L1020.36 99.4329V97.8632L1020.02 95.5086L1019.23 93.3222V90.8555L1019.62 87.716Z"/>
</mask>
<path d="M1019.62 87.716L1020.02 85.1371L1019.23 83.7356L1019 82.8386L1018.55 81.9416L1017.98 81.1567L1017.47 79.9794V78.9143V77.2324L1017.98 76.5597L1018.55 75.6627L1019.23 75.1021H1020.75L1021.54 75.6627L1022.16 76.5597L1022.96 78.1294L1023.3 79.4188V81.1567L1022.96 81.9416L1023.86 82.334L1024.71 82.6704L1025.5 83.4553V84.7447L1025.22 85.6417V86.9311L1024.71 87.8281L1025.05 88.8933L1025.22 90.407L1025.84 91.6964L1026.91 92.5934L1027.93 93.9389L1028.78 95.1162H1030.19L1030.76 93.9389V92.5934V91.1358L1031.32 89.6221L1032 88.3887L1032.96 87.4357L1033.75 86.4826L1034.71 85.6417L1036.07 85.2493H1037.26H1038.39L1039.86 85.6417L1040.82 86.4826L1041.33 87.4357L1041.72 88.6691L1042 90.0145L1042.29 90.7433V91.6964V92.5934V93.9389V94.7237V96.0132L1043.02 96.2374L1044.04 96.5738H1044.72L1045.73 96.2374L1046.86 96.0132L1047.71 95.3404L1048.45 94.7237L1049.41 93.9389L1050.14 93.2661L1050.59 92.3131V91.1358L1051.1 90.0145L1051.56 89.1736V87.8281L1051.84 86.1463L1052.06 84.7447L1051.84 83.4553L1051.56 81.9416V80.6522L1052.25 79.4188L1053.04 78.1294L1053.7 77.2324L1054.66 76.6718L1055.85 77.2324L1056.81 78.1294L1057.15 79.4188V81.9416V83.8477L1057.49 84.9129L1058.06 86.1463L1058.79 87.0433L1059.41 87.8281V88.8933L1059.13 90.0145L1058.06 91.9767L1057.15 94.3874L1056.87 95.7889L1056.47 97.1344L1056.02 98.4238L1055.34 99.8814L1054.32 102.068V104.479L1054.04 104.815V106.945V108.627L1054.32 109.02L1055.34 110.645L1056.19 112.047L1056.64 113.505V114.57L1056.19 115.971L1055.74 117.205L1054.89 118.046L1054.04 118.606L1053.08 118.774H1052.23H1051.72H1050.99L1050.37 118.382L1049.8 118.774V119.391L1049.35 120.344V121.802L1048.96 122.418L1048.79 123.427L1048.5 124.829L1048.05 125.334V126.231L1048.5 127.184L1048.96 127.968L1049.8 128.978L1050.71 130.155L1051.33 131.108L1052.01 132.061L1052.69 133.126L1053.08 134.135L1053.65 135.2L1053.99 136.266L1054.38 137.163V138.004V139.013V140.246L1054.16 141.479L1053.99 142.657L1053.65 144.058L1053.19 145.46L1052.86 146.189L1052.46 147.142V148.599H1024.82H1023.18L1023.58 147.534L1023.8 146.525L1023.97 145.292L1024.43 144.114L1024.82 143.049L1025.44 141.704L1025.95 140.358L1026.74 138.901L1027.31 137.667L1027.87 136.378L1028.55 135.481L1029.29 134.584L1029.96 133.631L1030.7 132.958V131.949L1030.19 131.164L1029.57 130.435H1028.78L1028.16 130.828L1027.31 131.164L1026.74 131.556L1025.95 131.949L1024.82 132.958L1023.97 133.631L1023.58 133.967L1022.67 134.36H1021.77L1020.58 133.631L1019.62 131.949V130.435V129.258L1018.83 128.249L1018.1 127.184L1017.59 125.614V124.829L1016.91 124.044L1016.23 123.091L1015.44 121.69V120.288L1015.72 119.167L1016.91 118.382L1018.1 116.924L1018.83 115.074L1019.62 112.832L1018.83 111.991L1018.1 110.589V108.235V105.488L1018.83 103.077L1019.62 101.227L1020.36 99.4329V97.8632L1020.02 95.5086L1019.23 93.3222V90.8555L1019.62 87.716Z" stroke="#FF1616" stroke-width="400" mask="url(#path-28-inside-8_33_81)"/>
<mask id="path-29-inside-9_33_81" fill="white">
<path d="M1025.26 82.1377L1020.14 83.8966L1019.64 84.7132V86.7862L1019.39 88.7964L1019.2 90.4925V92.4399V93.9475L1019.64 95.7692L1020.14 97.3397V98.9101V100.418L1019.2 102.365L1018.39 104.501L1017.57 106.7V109.024V110.594V112.605L1018.39 114.803L1019.64 116.06L1020.14 114.803L1021.2 113.421L1022.45 112.605L1023.76 111.411V109.024L1024.63 106.7L1025.94 105.38L1027.26 103.37L1028.01 101.863L1028.5 99.7896V98.0935V96.5859V94.7641L1027.26 92.8168L1025.94 91.3091L1025.26 89.0477V87.6657V86.0324L1025.94 84.7132V83.3941L1025.26 82.1377Z"/>
</mask>
<path d="M1020.14 83.8966L1003.9 36.6076L986.877 42.452L977.486 57.8006L1020.14 83.8966ZM1025.26 82.1377L1069.13 58.1477L1048.9 21.1533L1009.02 34.8487L1025.26 82.1377ZM1025.94 83.3941H1075.94V70.6156L1069.81 59.404L1025.94 83.3941ZM1025.94 84.7132L1070.29 107.809L1075.94 96.9534V84.7132H1025.94ZM1025.26 86.0324L980.911 62.9363L975.257 73.7923V86.0324H1025.26ZM1025.26 89.0477H975.257V96.4753L977.416 103.582L1025.26 89.0477ZM1025.94 91.3091L978.103 105.844L981.209 116.067L988.222 124.127L1025.94 91.3091ZM1027.26 92.8168L1069.34 65.8201L1067.37 62.7502L1064.98 59.9985L1027.26 92.8168ZM1028.5 94.7641H1078.5V80.1056L1070.59 67.7675L1028.5 94.7641ZM1028.5 99.7896L1077.11 111.506L1078.5 105.731V99.7896H1028.5ZM1028.01 101.863L1072.78 124.121L1075.29 119.066L1076.61 113.579L1028.01 101.863ZM1027.26 103.37L1069.13 130.693L1070.73 128.246L1072.03 125.628L1027.26 103.37ZM1025.94 105.38L1061.4 140.634L1065.02 136.998L1067.82 132.703L1025.94 105.38ZM1024.63 106.7L989.176 71.4457L981.612 79.053L977.835 89.0935L1024.63 106.7ZM1023.76 109.024L976.96 91.4178L973.758 99.9296V109.024H1023.76ZM1023.76 111.411L1057.41 148.392L1073.76 133.515V111.411H1023.76ZM1022.45 112.605L1049.81 154.455L1053.15 152.271L1056.1 149.585L1022.45 112.605ZM1021.2 113.421L993.838 71.5706L986.726 76.2202L981.548 82.9585L1021.2 113.421ZM1020.14 114.803L980.487 84.3405L976.247 89.8588L973.675 96.3252L1020.14 114.803ZM1019.64 116.06L984.179 151.313L1037.93 205.369L1066.1 134.537L1019.64 116.06ZM1018.39 114.803L971.483 132.125L975.254 142.337L982.93 150.057L1018.39 114.803ZM1017.57 112.605H967.575V121.542L970.671 129.926L1017.57 112.605ZM1017.57 106.7L970.671 89.3778L967.575 97.762V106.7H1017.57ZM1018.39 104.501L971.65 86.7332L971.565 86.9558L971.483 87.1791L1018.39 104.501ZM1019.2 102.365L974.142 80.6881L973.219 82.607L972.462 84.5974L1019.2 102.365ZM1020.14 100.418L1065.19 122.095L1070.14 111.82V100.418H1020.14ZM1020.14 97.3397H1070.14V89.5771L1067.78 82.18L1020.14 97.3397ZM1019.64 95.7692L971.016 107.438L971.44 109.201L971.989 110.929L1019.64 95.7692ZM1019.2 93.9475H969.199V99.8635L970.579 105.616L1019.2 93.9475ZM1019.2 90.4925L969.501 85.0021L969.199 87.739V90.4925H1019.2ZM1019.39 88.7964L969.768 82.6296L969.726 82.9675L969.688 83.306L1019.39 88.7964ZM1019.64 86.7862L1069.25 92.9531L1069.64 89.8815V86.7862H1019.64ZM1019.64 84.7132L976.986 58.6172L969.636 70.6301V84.7132H1019.64ZM1036.38 131.186L1041.5 129.427L1009.02 34.8487L1003.9 36.6076L1036.38 131.186ZM981.388 106.128L982.075 107.384L1069.81 59.404L1069.13 58.1477L981.388 106.128ZM975.944 83.3941V84.7132H1075.94V83.3941H975.944ZM981.598 61.6171L980.911 62.9363L1069.6 109.129L1070.29 107.809L981.598 61.6171ZM975.257 86.0324V87.6657H1075.26V86.0324H975.257ZM975.257 87.6657V89.0477H1075.26V87.6657H975.257ZM977.416 103.582L978.103 105.844L1073.79 76.7746L1073.1 74.5132L977.416 103.582ZM988.222 124.127L989.534 125.635L1064.98 59.9985L1063.67 58.4909L988.222 124.127ZM985.17 119.813L986.42 121.761L1070.59 67.7675L1069.34 65.8201L985.17 119.813ZM978.505 94.7641V96.5859H1078.5V94.7641H978.505ZM978.505 96.5859V98.0935H1078.5V96.5859H978.505ZM978.505 98.0935V99.7896H1078.5V98.0935H978.505ZM979.897 88.0732L979.397 90.1462L1076.61 113.579L1077.11 111.506L979.897 88.0732ZM983.233 79.6043L982.483 81.112L1072.03 125.628L1072.78 124.121L983.233 79.6043ZM985.382 76.0473L984.07 78.0574L1067.82 132.703L1069.13 130.693L985.382 76.0473ZM990.488 70.1265L989.176 71.4457L1060.09 141.953L1061.4 140.634L990.488 70.1265ZM977.835 89.0935L976.96 91.4178L1070.56 126.63L1071.43 124.306L977.835 89.0935ZM973.758 109.024V111.411H1073.76V109.024H973.758ZM990.107 74.43L988.795 75.6236L1056.1 149.585L1057.41 148.392L990.107 74.43ZM995.087 70.7539L993.838 71.5706L1048.56 155.272L1049.81 154.455L995.087 70.7539ZM981.548 82.9585L980.487 84.3405L1059.78 145.266L1060.85 143.884L981.548 82.9585ZM973.675 96.3252L973.175 97.5815L1066.1 134.537L1066.6 133.281L973.675 96.3252ZM1055.09 80.8056L1053.84 79.5493L982.93 150.057L984.179 151.313L1055.09 80.8056ZM1065.29 97.4813L1064.48 95.2827L970.671 129.926L971.483 132.125L1065.29 97.4813ZM1067.57 112.605V110.594H967.575V112.605H1067.57ZM1067.57 110.594V109.024H967.575V110.594H1067.57ZM1067.57 109.024V106.7H967.575V109.024H1067.57ZM1064.48 124.021L1065.29 121.823L971.483 87.1791L970.671 89.3778L1064.48 124.021ZM1065.12 122.269L1065.94 120.133L972.462 84.5974L971.65 86.7332L1065.12 122.269ZM1064.26 124.042L1065.19 122.095L975.079 78.7407L974.142 80.6881L1064.26 124.042ZM1070.14 100.418V98.9101H970.135V100.418H1070.14ZM1070.14 98.9101V97.3397H970.135V98.9101H1070.14ZM1067.78 82.18L1067.28 80.6095L971.989 110.929L972.489 112.499L1067.78 82.18ZM1068.26 84.1006L1067.82 82.2789L970.579 105.616L971.016 107.438L1068.26 84.1006ZM1069.2 93.9475V92.4399H969.199V93.9475H1069.2ZM1069.2 92.4399V90.4925H969.199V92.4399H1069.2ZM1068.9 95.9829L1069.08 94.2868L969.688 83.306L969.501 85.0021L1068.9 95.9829ZM1069 94.9633L1069.25 92.9531L970.018 80.6194L969.768 82.6296L1069 94.9633ZM1069.64 86.7862V84.7132H969.636V86.7862H1069.64ZM1062.29 110.809L1062.79 109.993L977.486 57.8006L976.986 58.6172L1062.29 110.809Z" fill="#F8EBA8" mask="url(#path-29-inside-9_33_81)"/>
<mask id="path-31-inside-10_33_81" fill="white">
<path d="M1046.71 98.5696L1045.72 96.1462L1049.93 93.3194L1051.18 89.7387L1051.55 85.5927V82.0121L1054.66 83.145H1056.9L1057.59 84.2107L1059.16 87.1004L1059.66 89.3778L1058.28 91.9591L1057.98 94.6663L1056.39 98.5696L1054.66 102.284V106.125V110.532L1052.92 108.328L1049.96 106.125L1046.71 103.606V98.5696Z"/>
</mask>
<path d="M1045.72 96.1462L1017.84 54.6392L983.962 77.393L999.466 115.143L1045.72 96.1462ZM1046.71 98.5696H1096.71V88.7014L1092.96 79.5731L1046.71 98.5696ZM1046.71 103.606H996.713V128.118L1016.09 143.13L1046.71 103.606ZM1049.96 106.125L1019.34 145.649L1019.72 145.947L1020.11 146.238L1049.96 106.125ZM1052.92 108.328L1092.22 77.4139L1088.11 72.1859L1082.77 68.215L1052.92 108.328ZM1054.66 110.532L1015.36 141.446L1104.66 254.961V110.532H1054.66ZM1054.66 102.284L1009.35 81.14L1004.66 91.1917V102.284H1054.66ZM1056.39 98.5696L1101.7 119.714L1102.23 118.58L1102.7 117.421L1056.39 98.5696ZM1057.98 94.6663L1104.29 113.518L1106.91 107.09L1107.67 100.192L1057.98 94.6663ZM1058.28 91.9591L1014.2 68.3588L1009.65 76.8549L1008.59 86.4331L1058.28 91.9591ZM1059.66 89.3778L1103.74 112.978L1112.47 96.669L1108.49 78.604L1059.66 89.3778ZM1059.16 87.1004L1107.99 76.3266L1106.46 69.43L1103.09 63.2247L1059.16 87.1004ZM1057.59 84.2107L1101.52 60.3351L1100.6 58.6333L1099.54 57.0082L1057.59 84.2107ZM1056.9 83.145L1098.85 55.9425L1084.07 33.145H1056.9V83.145ZM1054.66 83.145L1037.52 130.117L1045.82 133.145H1054.66V83.145ZM1051.55 82.0121L1068.69 35.04L1001.55 10.5491V82.0121H1051.55ZM1051.55 85.5927L1101.35 90.0291L1101.55 87.8153V85.5927H1051.55ZM1051.18 89.7387L1098.36 106.293L1100.43 100.398L1100.99 94.1751L1051.18 89.7387ZM1049.93 93.3194L1077.8 134.826L1091.6 125.558L1097.11 109.874L1049.93 93.3194ZM999.466 115.143L1000.46 117.566L1092.96 79.5731L1091.97 77.1496L999.466 115.143ZM996.713 98.5696V103.606H1096.71V98.5696H996.713ZM1016.09 143.13L1019.34 145.649L1080.59 66.6004L1077.34 64.0821L1016.09 143.13ZM1020.11 146.238L1023.08 148.441L1082.77 68.215L1079.81 66.0115L1020.11 146.238ZM1013.63 139.242L1015.36 141.446L1093.96 79.6175L1092.22 77.4139L1013.63 139.242ZM1104.66 110.532V106.125H1004.66V110.532H1104.66ZM1104.66 106.125V102.284H1004.66V106.125H1104.66ZM1099.97 123.428L1101.7 119.714L1011.08 77.4255L1009.35 81.14L1099.97 123.428ZM1102.7 117.421L1104.29 113.518L1011.67 75.8146L1010.08 79.7179L1102.7 117.421ZM1107.67 100.192L1107.97 97.4851L1008.59 86.4331L1008.29 89.1402L1107.67 100.192ZM1102.36 115.559L1103.74 112.978L1015.58 65.7776L1014.2 68.3588L1102.36 115.559ZM1108.49 78.604L1107.99 76.3266L1010.33 97.8741L1010.84 100.152L1108.49 78.604ZM1103.09 63.2247L1101.52 60.3351L1013.66 108.086L1015.23 110.976L1103.09 63.2247ZM1099.54 57.0082L1098.85 55.9425L1014.95 110.348L1015.64 111.413L1099.54 57.0082ZM1056.9 33.145H1054.66V133.145H1056.9V33.145ZM1071.79 36.1729L1068.69 35.04L1034.42 128.984L1037.52 130.117L1071.79 36.1729ZM1001.55 82.0121V85.5927H1101.55V82.0121H1001.55ZM1001.75 81.1563L1001.38 85.3023L1100.99 94.1751L1101.35 90.0291L1001.75 81.1563ZM1004 73.1843L1002.75 76.765L1097.11 109.874L1098.36 106.293L1004 73.1843ZM1022.05 51.8124L1017.84 54.6392L1073.6 137.653L1077.8 134.826L1022.05 51.8124Z" fill="#F8EBA8" mask="url(#path-31-inside-10_33_81)"/>
<path d="M1043.62 111.533L1043.27 111.664L1043.62 111.533Z" stroke="#F8EBA8" stroke-width="80"/>
<mask id="path-34-inside-11_33_81" fill="white">
<path d="M1034.44 128.23L1042.47 121.211L1048.17 125.922L1051.5 130.947L1052.56 132.769L1053.38 134.716L1054.26 136.727L1054.64 139.114V144.265L1054.26 148.295V150.986H1020.97V149.875L1022.96 143.791L1025.83 137.824L1028.93 134.08L1034.44 128.23Z"/>
</mask>
<path d="M1042.47 121.211L1118.92 28.721L1040.28 -36.2942L963.467 30.8839L1042.47 121.211ZM1034.44 128.23L955.441 37.9038L951.058 41.7369L947.067 45.9763L1034.44 128.23ZM1028.93 134.08L941.56 51.8262L938.975 54.5722L936.568 57.4751L1028.93 134.08ZM1025.83 137.824L933.462 61.219L924.071 72.5425L917.693 85.7992L1025.83 137.824ZM1022.96 143.791L914.823 91.766L911.384 98.9139L908.916 106.452L1022.96 143.791ZM1020.97 149.875L906.924 112.536L900.967 130.73V149.875H1020.97ZM1020.97 150.986H900.967V270.986H1020.97V150.986ZM1054.26 150.986V270.986H1174.26V150.986H1054.26ZM1054.26 148.295L934.787 137.038L934.257 142.654V148.295H1054.26ZM1054.64 144.265L1174.11 155.523L1174.64 149.906V144.265H1054.64ZM1054.64 139.114H1174.64V129.698L1173.17 120.398L1054.64 139.114ZM1051.5 130.947L1155.02 70.261L1153.35 67.4188L1151.53 64.6722L1051.5 130.947ZM1048.17 125.922L1148.21 59.6468L1138.36 44.7884L1124.62 33.4324L1048.17 125.922ZM1054.26 136.727L1172.79 118.011L1170.38 102.767L1164.2 88.6285L1054.26 136.727ZM1053.38 134.716L942.718 181.124L943.073 181.972L943.442 182.815L1053.38 134.716ZM1052.56 132.769L1163.23 86.3619L1160.13 78.9843L1156.09 72.0828L1052.56 132.769ZM963.467 30.8839L955.441 37.9038L1113.44 218.557L1121.47 211.537L963.467 30.8839ZM947.067 45.9763L941.56 51.8262L1116.31 216.334L1121.82 210.484L947.067 45.9763ZM936.568 57.4751L933.462 61.219L1118.2 214.429L1121.3 210.685L936.568 57.4751ZM917.693 85.7992L914.823 91.766L1131.09 195.816L1133.97 189.849L917.693 85.7992ZM908.916 106.452L906.924 112.536L1135.01 187.214L1137 181.13L908.916 106.452ZM900.967 149.875V150.986H1140.97V149.875H900.967ZM1020.97 270.986H1054.26V30.9864H1020.97V270.986ZM1174.26 150.986V148.295H934.257V150.986H1174.26ZM1173.73 159.553L1174.11 155.523L935.167 133.007L934.787 137.038L1173.73 159.553ZM1174.64 144.265V139.114H934.637V144.265H1174.64ZM1151.53 64.6722L1148.21 59.6468L948.129 192.197L951.458 197.223L1151.53 64.6722ZM1124.62 33.4324L1118.92 28.721L966.011 213.7L971.71 218.411L1124.62 33.4324ZM1173.17 120.398L1172.79 118.011L935.729 155.442L936.106 157.829L1173.17 120.398ZM1164.2 88.6285L1163.32 86.6183L943.442 182.815L944.321 184.825L1164.2 88.6285ZM1164.04 88.3092L1163.23 86.3619L941.901 179.176L942.718 181.124L1164.04 88.3092ZM1156.09 72.0828L1155.02 70.261L947.973 191.634L949.041 193.455L1156.09 72.0828Z" fill="#CA792E" mask="url(#path-34-inside-11_33_81)"/>
<line x1="1042.95" y1="121.205" x2="1043.08" y2="132.889" stroke="#65350A"/>
<mask id="path-37-inside-12_33_81" fill="white">
<path d="M1017.95 76.5469L1017.45 77.1751V80.0019L1017.95 81.1954L1018.58 81.9492L1018.96 82.8287L1019.21 83.8338L1019.77 84.5876L1020.28 83.8338L1024.23 82.5146L1023.04 81.8864L1023.35 81.0698L1023.29 79.3737L1022.91 77.9917L1022.54 77.1751L1022.1 76.4212L1021.53 75.6674L1020.78 75.1021H1019.27L1018.52 75.6674L1017.95 76.5469Z"/>
</mask>
<path d="M1017.45 77.1751L939.362 14.7056L917.449 42.097V77.1751H1017.45ZM1017.95 76.5469L1096.04 139.016L1099.27 134.976L1102.07 130.623L1017.95 76.5469ZM1018.52 75.6674L958.517 -4.33258L944.126 6.46035L934.399 21.5917L1018.52 75.6674ZM1019.27 75.1021V-24.8979H985.937L959.271 -4.89795L1019.27 75.1021ZM1020.78 75.1021L1080.78 -4.89795L1054.11 -24.8979H1020.78V75.1021ZM1021.53 75.6674L1101.53 15.6674L1092.96 4.23885L1081.53 -4.33258L1021.53 75.6674ZM1022.1 76.4212L1108.48 26.0341L1105.56 21.0434L1102.1 16.4212L1022.1 76.4212ZM1022.54 77.1751L1113.33 35.2692L1111.33 30.9228L1108.92 26.7879L1022.54 77.1751ZM1022.91 77.9917L1119.39 51.68L1117.2 43.6464L1113.71 36.0858L1022.91 77.9917ZM1023.29 79.3737L1123.22 75.6725L1122.8 64.1684L1119.77 53.062L1023.29 79.3737ZM1023.35 81.0698L1116.69 116.968L1124.04 97.844L1123.29 77.3686L1023.35 81.0698ZM1023.04 81.8864L929.705 45.9885L897.789 128.97L976.465 170.378L1023.04 81.8864ZM1024.23 82.5146L1055.86 177.383L1278.31 103.233L1070.81 -5.97723L1024.23 82.5146ZM1020.28 83.8338L988.653 -11.0346L956.103 -0.184525L937.071 28.3638L1020.28 83.8338ZM1019.77 84.5876L939.773 144.588L1024.58 257.659L1102.98 140.058L1019.77 84.5876ZM1019.21 83.8338L922.194 108.087L927.091 127.678L939.208 143.834L1019.21 83.8338ZM1018.96 82.8287L1115.97 58.5751L1114.03 50.8016L1110.87 43.4368L1018.96 82.8287ZM1018.58 81.9492L1110.49 42.5573L1104.75 29.1427L1095.4 17.9308L1018.58 81.9492ZM1017.95 81.1954L925.788 120.001L931.578 133.752L941.129 145.214L1017.95 81.1954ZM1017.45 80.0019H917.449V100.196L925.285 118.808L1017.45 80.0019ZM1095.54 139.645L1096.04 139.016L939.865 14.0774L939.362 14.7056L1095.54 139.645ZM1102.07 130.623L1102.63 129.743L934.399 21.5917L933.834 22.4711L1102.07 130.623ZM1078.52 155.667L1079.27 155.102L959.271 -4.89795L958.517 -4.33258L1078.52 155.667ZM1019.27 175.102H1020.78V-24.8979H1019.27V175.102ZM960.778 155.102L961.532 155.667L1081.53 -4.33258L1080.78 -4.89795L960.778 155.102ZM941.532 135.667L942.097 136.421L1102.1 16.4212L1101.53 15.6674L941.532 135.667ZM935.72 126.808L936.159 127.562L1108.92 26.7879L1108.48 26.0341L935.72 126.808ZM931.741 119.081L932.118 119.898L1113.71 36.0858L1113.33 35.2692L931.741 119.081ZM926.438 104.303L926.815 105.685L1119.77 53.062L1119.39 51.68L926.438 104.303ZM923.36 83.0749L923.422 84.771L1123.29 77.3686L1123.22 75.6725L923.36 83.0749ZM930.019 45.1718L929.705 45.9885L1116.37 117.784L1116.69 116.968L930.019 45.1718ZM976.465 170.378L977.659 171.006L1070.81 -5.97723L1069.61 -6.60542L976.465 170.378ZM992.61 -12.3537L988.653 -11.0346L1051.9 178.702L1055.86 177.383L992.61 -12.3537ZM937.071 28.3638L936.568 29.1176L1102.98 140.058L1103.48 139.304L937.071 28.3638ZM1099.77 24.5876L1099.21 23.8338L939.208 143.834L939.773 144.588L1099.77 24.5876ZM1116.22 59.5802L1115.97 58.5751L921.942 107.082L922.194 108.087L1116.22 59.5802ZM1110.87 43.4368L1110.49 42.5573L926.665 121.341L927.042 122.221L1110.87 43.4368ZM1095.4 17.9308L1094.77 17.177L941.129 145.214L941.758 145.968L1095.4 17.9308ZM1110.11 42.3897L1109.61 41.1962L925.285 118.808L925.788 120.001L1110.11 42.3897ZM1117.45 80.0019V77.1751H917.449V80.0019H1117.45Z" fill="#FFC060" mask="url(#path-37-inside-12_33_81)"/>
<mask id="path-39-inside-13_33_81" fill="white">
<path d="M1054.7 83.2055L1051.5 81.9492V80.6928L1052.31 78.8711L1053.07 77.8032L1053.76 77.0493L1054.83 76.6096L1056.08 77.175L1056.4 77.6775L1056.9 78.2429L1057.15 79.4993V80.3159V83.3312L1054.7 83.2055Z"/>
</mask>
<path d="M1051.5 81.9492H951.496V150.148L1014.99 175.046L1051.5 81.9492ZM1054.7 83.2055L1018.19 176.303L1033.33 182.241L1049.58 183.074L1054.7 83.2055ZM1057.15 83.3312L1052.03 183.2L1157.15 188.591V83.3312H1057.15ZM1057.15 79.4993H1157.15V69.5973L1155.21 59.8877L1057.15 79.4993ZM1056.9 78.2429L1154.96 58.6313L1149.64 32.0597L1131.64 11.8065L1056.9 78.2429ZM1056.4 77.6775L971.596 130.677L976.06 137.819L981.655 144.114L1056.4 77.6775ZM1056.08 77.175L1140.88 24.175L1124.8 -1.5623L1097.12 -14.0172L1056.08 77.175ZM1054.83 76.6096L1095.86 -14.5825L1056.58 -32.259L1016.75 -15.8582L1054.83 76.6096ZM1053.76 77.0493L1015.68 -15.4185L995.091 -6.93929L980.042 9.47688L1053.76 77.0493ZM1053.07 77.8032L979.351 10.2307L975.045 14.9285L971.37 20.1348L1053.07 77.8032ZM1052.31 78.8711L970.616 21.2028L965.027 29.1211L961.062 37.9655L1052.31 78.8711ZM1051.5 80.6928L960.245 39.7872L951.496 59.3044V80.6928H1051.5ZM1014.99 175.046L1018.19 176.303L1091.21 -9.89179L1088.01 -11.1482L1014.99 175.046ZM1049.58 183.074L1052.03 183.2L1062.27 -16.5376L1059.82 -16.6632L1049.58 183.074ZM1157.15 83.3312V80.3159H957.15V83.3312H1157.15ZM1157.15 80.3159V79.4993H957.15V80.3159H1157.15ZM1155.21 59.8877L1154.96 58.6313L958.841 97.8545L959.092 99.1108L1155.21 59.8877ZM1131.64 11.8065L1131.14 11.2411L981.655 144.114L982.158 144.679L1131.64 11.8065ZM1141.2 24.6776L1140.88 24.175L971.282 130.175L971.596 130.677L1141.2 24.6776ZM1097.12 -14.0172L1095.86 -14.5825L1013.79 167.802L1015.05 168.367L1097.12 -14.0172ZM1016.75 -15.8582L1015.68 -15.4185L1091.83 169.517L1092.9 169.077L1016.75 -15.8582ZM980.042 9.47688L979.351 10.2307L1126.78 145.376L1127.47 144.622L980.042 9.47688ZM971.37 20.1348L970.616 21.2028L1134.01 136.539L1134.76 135.471L971.37 20.1348ZM961.062 37.9655L960.245 39.7872L1142.75 121.598L1143.56 119.777L961.062 37.9655ZM951.496 80.6928V81.9492H1151.5V80.6928H951.496Z" fill="#FFC060" mask="url(#path-39-inside-13_33_81)"/>
<ellipse cx="1037.93" cy="91.4976" rx="3.51782" ry="4.71136" fill="#FFC060"/>
<rect x="1035.29" y="94.7013" width="5.15109" height="3.01527" fill="#FFC060"/>
<mask id="path-43-inside-14_33_81" fill="white">
<path d="M1032.09 94.5756L1030.2 94.9525L1030.52 93.9474L1030.77 93.5077V92.5655L1030.52 91.5604L1030.77 90.3668L1031.14 89.6758L1031.58 88.7335L1032.09 87.9797L1033.03 87.1631L1033.84 86.2836L1034.72 85.5298L1035.92 85.2157L1037.05 85.0901H1038.24L1039.37 85.2157L1040.5 86.0952L1041.01 86.6605L1041.38 87.54L1041.7 88.3566L1041.95 89.3617L1042.2 90.2412L1042.39 90.8065L1042.26 91.3719V92.1885V93.5077V94.8269V95.832L1041.95 95.6435L1041.38 95.4551L1040.94 95.2038L1040.5 94.8269L1040.75 94.45L1041.01 93.9474V93.5077L1041.38 92.7539V92.0629V91.0578L1041.19 89.9899L1040.94 89.1733L1040.69 88.5451L1040.31 87.9797L1039.81 87.54L1039.37 87.1631L1038.81 86.9746L1038.24 86.9118H1037.68L1037.05 86.9746L1036.48 87.1631L1036.04 87.54L1035.54 87.9797L1035.29 88.3566L1035.04 88.7335L1034.91 89.1733L1034.66 89.6758L1034.47 90.3668L1034.41 90.8694V91.5604V92.1885L1034.54 92.8795L1034.72 93.5077L1035.04 94.2615H1034.91L1033.59 94.5756H1032.09Z"/>
</mask>
<path d="M1030.2 94.9525L982.477 80.0388L957.327 160.517L1040.01 143.982L1030.2 94.9525ZM1032.09 94.5756V44.5756H1027.13L1022.28 45.5466L1032.09 94.5756ZM1033.59 94.5756V144.576H1039.46L1045.17 143.216L1033.59 94.5756ZM1034.91 94.2615V44.2615H1029.04L1023.33 45.6212L1034.91 94.2615ZM1035.04 94.2615V144.262H1110.04L1081.19 75.0308L1035.04 94.2615ZM1034.72 93.5077L986.833 107.875L987.576 110.352L988.57 112.738L1034.72 93.5077ZM1034.54 92.8795L985.342 101.824L985.842 104.572L986.644 107.247L1034.54 92.8795ZM1034.41 92.1885H984.41V96.697L985.216 101.133L1034.41 92.1885ZM1034.41 90.8694L984.796 84.6676L984.41 87.7565V90.8694H1034.41ZM1034.47 90.3668L986.234 77.2109L985.299 80.6391L984.859 84.1651L1034.47 90.3668ZM1034.66 89.6758L989.94 67.3151L987.726 71.7434L986.423 76.5199L1034.66 89.6758ZM1034.91 89.1733L1079.63 111.534L1081.71 107.378L1082.99 102.909L1034.91 89.1733ZM1035.04 88.7335L993.435 60.9985L989.106 67.4927L986.962 74.9975L1035.04 88.7335ZM1035.54 87.9797L1002.62 50.3509L997.62 54.7218L993.938 60.2447L1035.54 87.9797ZM1036.04 87.54L1003.5 49.5772L1003.31 49.7432L1003.12 49.9112L1036.04 87.54ZM1036.48 87.1631L1020.67 39.7289L1011.38 42.8262L1003.94 49.2003L1036.48 87.1631ZM1037.05 86.9746L1032.07 37.2228L1026.53 37.7775L1021.24 39.5405L1037.05 86.9746ZM1037.68 86.9118V36.9118H1035.18L1032.7 37.16L1037.68 86.9118ZM1038.24 86.9118L1043.76 37.2176L1041.01 36.9118H1038.24V86.9118ZM1038.81 86.9746L1054.62 39.5405L1049.59 37.8654L1044.33 37.2804L1038.81 86.9746ZM1039.37 87.1631L1071.91 49.2002L1064.48 42.8262L1055.18 39.7289L1039.37 87.1631ZM1039.81 87.54L1072.74 49.9112L1072.55 49.7432L1072.35 49.5772L1039.81 87.54ZM1040.31 87.9797L1081.92 60.2448L1078.24 54.7218L1073.24 50.3509L1040.31 87.9797ZM1040.69 88.5451L1087.12 69.9755L1085.18 65.1418L1082.29 60.8101L1040.69 88.5451ZM1040.94 89.1733L1088.73 74.469L1088.13 72.5083L1087.37 70.6037L1040.94 89.1733ZM1041.19 89.9899L1090.43 81.3006L1089.89 78.2482L1088.98 75.2856L1041.19 89.9899ZM1041.38 91.0578H1091.38V86.6799L1090.62 82.3685L1041.38 91.0578ZM1041.38 92.7539L1086.1 115.115L1091.38 104.557V92.7539H1041.38ZM1041.01 93.5077L996.284 71.1471L991.006 81.7044V93.5077H1041.01ZM1041.01 93.9474L1085.73 116.308L1091.01 105.751V93.9474H1041.01ZM1040.75 94.45L1082.36 122.185L1084.08 119.595L1085.48 116.811L1040.75 94.45ZM1040.5 94.8269L998.901 67.0919L974.324 103.956L1007.96 132.79L1040.5 94.8269ZM1040.94 95.2038L1008.4 133.167L1012.01 136.259L1016.14 138.616L1040.94 95.2038ZM1041.38 95.4551L1016.58 138.867L1020.87 141.324L1025.57 142.889L1041.38 95.4551ZM1041.95 95.6435L1067.67 52.7689L1062.97 49.945L1057.76 48.2094L1041.95 95.6435ZM1042.26 95.832L1016.54 138.707L1092.26 184.142V95.832H1042.26ZM1042.26 91.3719L993.453 80.5254L992.262 85.8833V91.3719H1042.26ZM1042.39 90.8065L1091.2 101.653L1094.2 88.1336L1089.82 74.9952L1042.39 90.8065ZM1042.2 90.2412L994.123 103.977L994.422 105.022L994.765 106.053L1042.2 90.2412ZM1041.95 89.3617L993.441 101.489L993.643 102.297L993.872 103.098L1041.95 89.3617ZM1041.7 88.3566L1090.2 76.2298L1089.46 73.2625L1088.36 70.4077L1041.7 88.3566ZM1041.38 87.54L1088.05 69.591L1087.71 68.7109L1087.34 67.8441L1041.38 87.54ZM1041.01 86.6605L1086.96 66.9646L1083.77 59.5067L1078.38 53.4423L1041.01 86.6605ZM1040.5 86.0952L1077.87 52.877L1074.82 49.4459L1071.2 46.6276L1040.5 86.0952ZM1039.37 85.2157L1070.07 45.7481L1058.93 37.0806L1044.89 35.5215L1039.37 85.2157ZM1038.24 85.0901L1043.76 35.3959L1041.01 35.0901H1038.24V85.0901ZM1037.05 85.0901V35.0901H1034.28L1031.53 35.3959L1037.05 85.0901ZM1035.92 85.2157L1030.4 35.5215L1026.75 35.9272L1023.19 36.862L1035.92 85.2157ZM1034.72 85.5298L1022 37.1761L1010.9 40.0972L1002.18 47.567L1034.72 85.5298ZM1033.84 86.2836L1001.3 48.3208L999.143 50.1742L997.205 52.2611L1033.84 86.2836ZM1033.03 87.1631L1065.77 124.948L1067.82 123.172L1069.67 121.186L1033.03 87.1631ZM1032.09 87.9797L999.339 50.1953L994.232 54.6215L990.483 60.2447L1032.09 87.9797ZM1031.58 88.7335L989.98 60.9985L987.877 64.1534L986.274 67.5893L1031.58 88.7335ZM1031.14 89.6758L1075.04 113.618L1075.79 112.241L1076.45 110.82L1031.14 89.6758ZM1030.77 90.3668L986.872 66.4242L983.353 72.8754L981.839 80.0663L1030.77 90.3668ZM1030.52 91.5604L981.588 81.2598L979.217 92.5219L982.008 103.687L1030.52 91.5604ZM1030.77 92.5655H1080.77V86.4102L1079.27 80.4387L1030.77 92.5655ZM1030.77 93.5077L1074.18 118.315L1080.77 106.786V93.5077H1030.77ZM1030.52 93.9474L987.103 69.1405L984.41 73.8531L982.791 79.0337L1030.52 93.9474ZM1040.01 143.982L1041.89 143.605L1022.28 45.5466L1020.4 45.9235L1040.01 143.982ZM1032.09 144.576H1033.59V44.5756H1032.09V144.576ZM1045.17 143.216L1046.49 142.902L1023.33 45.6212L1022.01 45.9353L1045.17 143.216ZM1034.91 144.262H1035.04V44.2615H1034.91V144.262ZM1081.19 75.0308L1080.88 74.2769L988.57 112.738L988.884 113.492L1081.19 75.0308ZM1082.62 79.1403L1082.43 78.5121L986.644 107.247L986.833 107.875L1082.62 79.1403ZM1083.73 83.9353L1083.6 83.2443L985.216 101.133L985.342 101.824L1083.73 83.9353ZM1084.41 92.1885V91.5604H984.41V92.1885H1084.41ZM1084.41 91.5604V90.8694H984.41V91.5604H1084.41ZM1084.02 97.0711L1084.09 96.5685L984.859 84.1651L984.796 84.6676L1084.02 97.0711ZM1082.71 103.523L1082.9 102.832L986.423 76.5199L986.234 77.2109L1082.71 103.523ZM1079.38 112.036L1079.63 111.534L990.191 66.8126L989.94 67.3151L1079.38 112.036ZM1082.99 102.909L1083.11 102.47L986.962 74.9975L986.836 75.4372L1082.99 102.909ZM1076.64 116.469L1076.89 116.092L993.687 60.6216L993.435 60.9985L1076.64 116.469ZM1076.89 116.092L1077.14 115.715L993.938 60.2447L993.687 60.6216L1076.89 116.092ZM1068.47 125.609L1068.97 125.169L1003.12 49.9112L1002.62 50.3509L1068.47 125.609ZM1068.58 125.503L1069.02 125.126L1003.94 49.2003L1003.5 49.5772L1068.58 125.503ZM1052.29 134.597L1052.86 134.409L1021.24 39.5405L1020.67 39.7289L1052.29 134.597ZM1042.02 136.726L1042.65 136.664L1032.7 37.16L1032.07 37.2228L1042.02 136.726ZM1037.68 136.912H1038.24V36.9118H1037.68V136.912ZM1032.72 136.606L1033.29 136.669L1044.33 37.2804L1043.76 37.2176L1032.72 136.606ZM1023 134.409L1023.56 134.597L1055.18 39.7289L1054.62 39.5405L1023 134.409ZM1006.83 125.126L1007.27 125.503L1072.35 49.5772L1071.91 49.2002L1006.83 125.126ZM1006.89 125.169L1007.39 125.609L1073.24 50.3509L1072.74 49.9112L1006.89 125.169ZM998.712 115.715L999.089 116.28L1082.29 60.8101L1081.92 60.2448L998.712 115.715ZM994.268 107.115L994.519 107.743L1087.37 70.6037L1087.12 69.9755L994.268 107.115ZM993.154 103.878L993.405 104.694L1088.98 75.2856L1088.73 74.469L993.154 103.878ZM991.955 98.6792L992.143 99.7471L1090.62 82.3685L1090.43 81.3006L991.955 98.6792ZM991.383 91.0578V92.0629H1091.38V91.0578H991.383ZM991.383 92.0629V92.7539H1091.38V92.0629H991.383ZM996.661 70.3933L996.284 71.1471L1085.73 115.868L1086.1 115.115L996.661 70.3933ZM991.006 93.5077V93.9474H1091.01V93.5077H991.006ZM996.284 71.5867L996.033 72.0893L1085.48 116.811L1085.73 116.308L996.284 71.5867ZM999.152 66.715L998.901 67.0919L1082.11 122.562L1082.36 122.185L999.152 66.715ZM1007.96 132.79L1008.4 133.167L1073.48 57.241L1073.04 56.8641L1007.96 132.79ZM1016.14 138.616L1016.58 138.867L1066.19 52.0429L1065.75 51.7916L1016.14 138.616ZM1025.57 142.889L1026.14 143.078L1057.76 48.2094L1057.19 48.0209L1025.57 142.889ZM1016.22 138.518L1016.54 138.707L1067.99 52.9574L1067.67 52.7689L1016.22 138.518ZM1092.26 95.832V94.8269H992.262V95.832H1092.26ZM1092.26 94.8269V93.5077H992.262V94.8269H1092.26ZM1092.26 93.5077V92.1885H992.262V93.5077H1092.26ZM1092.26 92.1885V91.3719H992.262V92.1885H1092.26ZM1091.07 102.218L1091.2 101.653L993.578 79.96L993.453 80.5254L1091.07 102.218ZM1089.82 74.9952L1089.63 74.4298L994.765 106.053L994.954 106.618L1089.82 74.9952ZM1090.28 76.5051L1090.02 75.6257L993.872 103.098L994.123 103.977L1090.28 76.5051ZM1090.46 77.2349L1090.2 76.2298L993.19 100.483L993.441 101.489L1090.46 77.2349ZM1088.36 70.4077L1088.05 69.591L994.715 105.489L995.029 106.306L1088.36 70.4077ZM1087.34 67.8441L1086.96 66.9646L995.048 106.356L995.425 107.236L1087.34 67.8441ZM1078.38 53.4423L1077.87 52.877L1003.13 119.313L1003.64 119.879L1078.38 53.4423ZM1071.2 46.6276L1070.07 45.7481L1008.68 124.683L1009.81 125.563L1071.2 46.6276ZM1044.89 35.5215L1043.76 35.3959L1032.72 134.784L1033.85 134.91L1044.89 35.5215ZM1038.24 35.0901H1037.05V135.09H1038.24V35.0901ZM1031.53 35.3959L1030.4 35.5215L1041.44 134.91L1042.57 134.784L1031.53 35.3959ZM1023.19 36.862L1022 37.1761L1047.45 133.884L1048.64 133.569L1023.19 36.862ZM1002.18 47.567L1001.3 48.3208L1066.38 124.246L1067.26 123.493L1002.18 47.567ZM997.205 52.2611L996.388 53.1405L1069.67 121.186L1070.48 120.306L997.205 52.2611ZM1000.28 49.3786L999.339 50.1953L1064.83 125.764L1065.77 124.948L1000.28 49.3786ZM990.483 60.2447L989.98 60.9985L1073.19 116.469L1073.69 115.715L990.483 60.2447ZM986.274 67.5893L985.834 68.5315L1076.45 110.82L1076.89 109.878L986.274 67.5893ZM987.248 65.7332L986.872 66.4242L1074.66 114.309L1075.04 113.618L987.248 65.7332ZM981.839 80.0663L981.588 81.2598L1079.44 101.861L1079.69 100.667L981.839 80.0663ZM982.008 103.687L982.259 104.692L1079.27 80.4387L1079.02 79.4336L982.008 103.687ZM980.766 92.5655V93.5077H1080.77V92.5655H980.766ZM987.354 68.7008L987.103 69.1405L1073.93 118.754L1074.18 118.315L987.354 68.7008ZM982.791 79.0337L982.477 80.0388L1077.92 109.866L1078.24 108.861L982.791 79.0337Z" fill="#65350A" mask="url(#path-43-inside-14_33_81)"/>
<mask id="path-45-inside-15_33_81" fill="white">
<path d="M1037.17 92.1258L1037.61 91.8117L1038.18 91.6233H1038.74L1039.06 91.6861L1039.44 92.0002L1039.69 92.2515L1039.81 92.6284L1040 93.1937V93.6963V94.3245L1039.69 94.7642L1039.31 94.9527L1038.49 95.3924H1037.93L1037.3 94.9527L1036.8 94.5129L1036.55 93.6963L1036.67 92.8797L1036.92 92.3771L1037.17 92.1258Z"/>
</mask>
<path d="M1039.18 94.0104V109.01H1048.45L1052.6 100.719L1039.18 94.0104ZM1039.31 93.7591L1052.73 100.467L1054.31 97.3001V93.7591H1039.31ZM1039.31 92.8797H1054.31V87.8797L1051.31 83.8797L1039.31 92.8797ZM1039.12 92.6284L1024.89 97.3718L1025.66 99.681L1027.12 101.628L1039.12 92.6284ZM1039 92.2515L1053.23 87.5081L1051.26 81.6137L1045.7 78.8351L1039 92.2515ZM1038.74 92.1258L1045.45 78.7094L1042.29 77.1258H1038.74V92.1258ZM1037.93 92.1258V77.1258H1035.04L1032.36 78.1987L1037.93 92.1258ZM1037.61 92.2515L1032.04 78.3243L1025.58 80.9081L1023.38 87.5081L1037.61 92.2515ZM1037.49 92.6284L1023.26 87.885L1022.49 90.1942V92.6284H1037.49ZM1037.49 92.8797L1052.2 95.8214L1052.49 94.3649V92.8797H1037.49ZM1037.43 93.1937L1022.72 90.252L1022.43 91.7085V93.1937H1037.43ZM1037.43 93.5078L1050.84 100.216L1052.43 97.0489V93.5078H1037.43ZM1037.43 93.7591L1050.84 87.0509L1050.84 87.0509L1037.43 93.7591ZM1037.8 109.01H1038.43V79.0104H1037.8V109.01ZM1038.43 109.01H1038.93V79.0104H1038.43V109.01ZM1038.93 109.01H1039.18V79.0104H1038.93V109.01ZM1052.6 100.719L1052.73 100.467L1025.89 87.0509L1025.77 87.3022L1052.6 100.719ZM1054.31 93.7591V93.445H1024.31V93.7591H1054.31ZM1054.31 93.445V92.8797H1024.31V93.445H1054.31ZM1051.31 83.8797L1051.12 83.6284L1027.12 101.628L1027.31 101.88L1051.31 83.8797ZM1053.35 87.885L1053.23 87.5081L1024.77 96.9949L1024.89 97.3718L1053.35 87.885ZM1045.7 78.8351L1045.45 78.7094L1032.04 105.542L1032.29 105.668L1045.7 78.8351ZM1038.74 77.1258H1038.3V107.126H1038.74V77.1258ZM1038.3 77.1258H1037.93V107.126H1038.3V77.1258ZM1032.36 78.1987L1032.04 78.3243L1043.18 106.179L1043.5 106.053L1032.36 78.1987ZM1023.38 87.5081L1023.26 87.885L1051.72 97.3718L1051.84 96.9949L1023.38 87.5081ZM1022.49 92.6284V92.8797H1052.49V92.6284H1022.49ZM1022.78 89.9379L1022.72 90.252L1052.13 96.1355L1052.2 95.8214L1022.78 89.9379ZM1022.43 93.1937V93.5078H1052.43V93.1937H1022.43ZM1024.01 86.7996C1022.75 89.31 1021.1 94.6532 1024.01 100.467L1050.84 87.0509C1052.33 90.027 1052.51 92.8613 1052.35 94.8284C1052.2 96.6648 1051.7 98.4945 1050.84 100.216L1024.01 86.7996ZM1024.01 100.467C1025.77 103.991 1028.47 105.834 1028.73 106.029C1029.57 106.635 1030.36 107.093 1031.03 107.427L1044.45 80.594C1045.03 80.886 1045.7 81.2683 1046.4 81.7846C1046.77 82.0531 1047.37 82.5141 1048.03 83.1732C1048.6 83.7367 1049.83 85.0335 1050.84 87.0509L1024.01 100.467ZM1037.61 91.8117L1028.13 63.3512L1023.85 64.7778L1020.18 67.3997L1037.61 91.8117ZM1037.17 92.1258L1019.74 67.7138L1017.72 69.157L1015.96 70.9126L1037.17 92.1258ZM1036.92 92.3771L1015.71 71.1639L1012.27 74.6063L1010.09 78.9607L1036.92 92.3771ZM1036.67 92.8797L1009.84 79.4632L1007.74 83.6697L1007.02 88.3179L1036.67 92.8797ZM1036.55 93.6963L1006.89 89.1346L1005.85 95.9389L1007.87 102.519L1036.55 93.6963ZM1036.8 94.5129L1008.12 103.336L1010.63 111.479L1017.04 117.09L1036.8 94.5129ZM1037.3 94.9527L1017.54 117.53L1018.77 118.599L1020.1 119.53L1037.3 94.9527ZM1037.93 95.3924L1020.72 119.969L1028.47 125.392H1037.93V95.3924ZM1038.49 95.3924V125.392H1046.06L1052.72 121.807L1038.49 95.3924ZM1039.31 94.9527L1025.89 68.1198L1025.49 68.3231L1025.09 68.5385L1039.31 94.9527ZM1039.69 94.7642L1053.1 121.597L1059.77 118.265L1064.1 112.201L1039.69 94.7642ZM1040 94.3245L1064.41 111.762L1070 103.938V94.3245H1040ZM1040 93.1937H1070V88.3254L1068.46 83.7069L1040 93.1937ZM1039.81 92.6284L1068.27 83.1416L1068.27 83.1416L1039.81 92.6284ZM1039.69 92.2515L1068.15 82.7646L1065.91 76.046L1060.9 71.0383L1039.69 92.2515ZM1039.44 92.0002L1060.65 70.787L1059.69 69.8247L1058.64 68.9536L1039.44 92.0002ZM1039.06 91.6861L1058.26 68.6395L1052.41 63.7627L1044.94 62.2687L1039.06 91.6861ZM1038.74 91.6233L1044.63 62.2059L1041.71 61.6233H1038.74V91.6233ZM1038.18 91.6233V61.6233H1033.31L1028.69 63.1628L1038.18 91.6233ZM1020.18 67.3997L1019.74 67.7138L1054.61 116.538L1055.05 116.224L1020.18 67.3997ZM1015.96 70.9126L1015.71 71.1639L1058.14 113.59L1058.39 113.339L1015.96 70.9126ZM1010.09 78.9607L1009.84 79.4632L1063.5 106.296L1063.76 105.794L1010.09 78.9607ZM1007.02 88.3179L1006.89 89.1346L1066.2 98.258L1066.32 97.4414L1007.02 88.3179ZM1007.87 102.519L1008.12 103.336L1065.47 85.6903L1065.22 84.8737L1007.87 102.519ZM1017.04 117.09L1017.54 117.53L1057.05 72.3754L1056.55 71.9356L1017.04 117.09ZM1020.1 119.53L1020.72 119.969L1055.13 70.8154L1054.5 70.3757L1020.1 119.53ZM1037.93 125.392H1038.49V65.3924H1037.93V125.392ZM1052.72 121.807L1053.53 121.367L1025.09 68.5385L1024.27 68.9783L1052.72 121.807ZM1052.73 121.785L1053.1 121.597L1026.27 67.9314L1025.89 68.1198L1052.73 121.785ZM1064.1 112.201L1064.41 111.762L1015.59 76.8873L1015.27 77.3271L1064.1 112.201ZM1070 94.3245V93.6963H1010V94.3245H1070ZM1070 93.6963V93.1937H1010V93.6963H1070ZM1068.46 83.7069L1068.27 83.1416L1011.35 102.115L1011.54 102.681L1068.46 83.7069ZM1068.27 83.1416L1068.15 82.7646L1011.23 101.738L1011.35 102.115L1068.27 83.1416ZM1060.9 71.0383L1060.65 70.787L1018.22 113.213L1018.47 113.465L1060.9 71.0383ZM1058.64 68.9536L1058.26 68.6395L1019.85 114.733L1020.23 115.047L1058.64 68.9536ZM1044.94 62.2687L1044.63 62.2059L1032.86 121.041L1033.17 121.104L1044.94 62.2687ZM1038.74 61.6233H1038.18V121.623H1038.74V61.6233ZM1028.69 63.1628L1028.13 63.3512L1047.1 120.272L1047.67 120.084L1028.69 63.1628Z" fill="#65350A" mask="url(#path-45-inside-15_33_81)"/>
<path d="M1039.56 93.0052C1039.56 93.1787 1039.06 93.2565 1038.44 93.1309C1037.86 93.1937 1037.31 93.445 1037.25 92.9424C1037.25 92.7689 1037.82 92.5027 1038.44 92.5027C1039.07 92.5027 1039.56 92.8318 1039.56 93.0052Z" fill="#FFC060"/>
</g>
<path d="M153 455C537.649 411.004 1145.04 293 1440 293V455H680.705H153Z" fill="#00873F"/>
<defs>
<filter id="filter0_ddd_33_81" x="907.391" y="0" width="259.905" height="351.435" filterUnits="userSpaceOnUse" color-interpolation-filters="sRGB">
<feFlood flood-opacity="0" result="BackgroundImageFix"/>
<feColorMatrix in="SourceAlpha" type="matrix" values="0 0 0 0 0 0 0 0 0 0 0 0 0 0 0 0 0 0 127 0" result="hardAlpha"/>
<feOffset dy="4"/>
<feGaussianBlur stdDeviation="2"/>
<feComposite in2="hardAlpha" operator="out"/>
<feColorMatrix type="matrix" values="0 0 0 0 0 0 0 0 0 0 0 0 0 0 0 0 0 0 0.25 0"/>
<feBlend mode="normal" in2="BackgroundImageFix" result="effect1_dropShadow_33_81"/>
<feColorMatrix in="SourceAlpha" type="matrix" values="0 0 0 0 0 0 0 0 0 0 0 0 0 0 0 0 0 0 127 0" result="hardAlpha"/>
<feOffset dy="4"/>
<feGaussianBlur stdDeviation="2"/>
<feComposite in2="hardAlpha" operator="out"/>
<feColorMatrix type="matrix" values="0 0 0 0 0 0 0 0 0 0 0 0 0 0 0 0 0 0 0.25 0"/>
<feBlend mode="normal" in2="effect1_dropShadow_33_81" result="effect2_dropShadow_33_81"/>
<feColorMatrix in="SourceAlpha" type="matrix" values="0 0 0 0 0 0 0 0 0 0 0 0 0 0 0 0 0 0 127 0" result="hardAlpha"/>
<feOffset dy="4"/>
<feGaussianBlur stdDeviation="2"/>
<feComposite in2="hardAlpha" operator="out"/>
<feColorMatrix type="matrix" values="0 0 0 0 0 0 0 0 0 0 0 0 0 0 0 0 0 0 0.25 0"/>
<feBlend mode="normal" in2="effect2_dropShadow_33_81" result="effect3_dropShadow_33_81"/>
<feBlend mode="normal" in="SourceGraphic" in2="effect3_dropShadow_33_81" result="shape"/>
</filter>
<filter id="filter1_ddd_33_81" x="1011.44" y="75.1021" width="52.2241" height="83.8843" filterUnits="userSpaceOnUse" color-interpolation-filters="sRGB">
<feFlood flood-opacity="0" result="BackgroundImageFix"/>
<feColorMatrix in="SourceAlpha" type="matrix" values="0 0 0 0 0 0 0 0 0 0 0 0 0 0 0 0 0 0 127 0" result="hardAlpha"/>
<feOffset dy="4"/>
<feGaussianBlur stdDeviation="2"/>
<feComposite in2="hardAlpha" operator="out"/>
<feColorMatrix type="matrix" values="0 0 0 0 0 0 0 0 0 0 0 0 0 0 0 0 0 0 0.25 0"/>
<feBlend mode="normal" in2="BackgroundImageFix" result="effect1_dropShadow_33_81"/>
<feColorMatrix in="SourceAlpha" type="matrix" values="0 0 0 0 0 0 0 0 0 0 0 0 0 0 0 0 0 0 127 0" result="hardAlpha"/>
<feOffset dy="4"/>
<feGaussianBlur stdDeviation="2"/>
<feComposite in2="hardAlpha" operator="out"/>
<feColorMatrix type="matrix" values="0 0 0 0 0 0 0 0 0 0 0 0 0 0 0 0 0 0 0.25 0"/>
<feBlend mode="normal" in2="effect1_dropShadow_33_81" result="effect2_dropShadow_33_81"/>
<feColorMatrix in="SourceAlpha" type="matrix" values="0 0 0 0 0 0 0 0 0 0 0 0 0 0 0 0 0 0 127 0" result="hardAlpha"/>
<feOffset dy="4"/>
<feGaussianBlur stdDeviation="2"/>
<feComposite in2="hardAlpha" operator="out"/>
<feColorMatrix type="matrix" values="0 0 0 0 0 0 0 0 0 0 0 0 0 0 0 0 0 0 0.25 0"/>
<feBlend mode="normal" in2="effect2_dropShadow_33_81" result="effect3_dropShadow_33_81"/>
<feBlend mode="normal" in="SourceGraphic" in2="effect3_dropShadow_33_81" result="shape"/>
</filter>
</defs>
</svg>
