<svg width="99" height="99" viewBox="0 0 99 99" fill="none" xmlns="http://www.w3.org/2000/svg">
<path d="M68.475 24.0075C65.6553 20.7884 64.1013 16.6544 64.1025 12.375H51.3563V63.525C51.2579 66.293 50.0893 68.9148 48.0965 70.8384C46.1037 72.7619 43.4422 73.8371 40.6725 73.8375C34.815 73.8375 29.9475 69.0525 29.9475 63.1125C29.9475 56.0175 36.795 50.6962 43.8488 52.8825V39.8475C29.6175 37.95 17.16 49.005 17.16 63.1125C17.16 76.8487 28.545 86.625 40.6313 86.625C53.5838 86.625 64.1025 76.1063 64.1025 63.1125V37.1663C69.2711 40.8781 75.4766 42.8697 81.84 42.8588V30.1125C81.84 30.1125 74.085 30.4838 68.475 24.0075Z" fill="#00873F"/>
</svg>
