<svg width="70" height="70" viewBox="0 0 70 70" fill="none" xmlns="http://www.w3.org/2000/svg">
<path d="M35 0C54.3305 0 70 15.6695 70 35C70 54.3305 54.3305 70 35 70C28.8148 70.0099 22.7383 68.373 17.395 65.2575L0.0140492 70L4.74605 52.612C1.62787 47.267 -0.0102843 41.188 4.85808e-05 35C4.85808e-05 15.6695 15.6695 0 35 0ZM23.072 18.55L22.372 18.578C21.9189 18.6056 21.476 18.7246 21.07 18.928C20.6904 19.143 20.3438 19.4118 20.041 19.726C19.621 20.1215 19.383 20.4645 19.1275 20.797C17.833 22.4801 17.1359 24.5466 17.1465 26.67C17.1535 28.385 17.6015 30.0545 18.3015 31.6155C19.733 34.7725 22.0885 38.115 25.1965 41.2125C25.9455 41.958 26.6805 42.707 27.4715 43.4035C31.3334 46.8036 35.9354 49.2556 40.9115 50.5645L42.8995 50.869C43.547 50.904 44.1945 50.855 44.8455 50.8235C45.8649 50.7708 46.8602 50.4948 47.761 50.015C48.2194 49.7789 48.6667 49.5219 49.1015 49.245C49.1015 49.245 49.252 49.147 49.539 48.93C50.0115 48.58 50.302 48.3315 50.694 47.922C50.9845 47.621 51.2365 47.2675 51.429 46.865C51.702 46.2945 51.975 45.206 52.087 44.2995C52.171 43.6065 52.1465 43.2285 52.136 42.994C52.122 42.6195 51.8105 42.231 51.471 42.0665L49.434 41.153C49.434 41.153 46.389 39.8265 44.527 38.9795C44.3322 38.8944 44.1234 38.8458 43.911 38.836C43.6716 38.8114 43.4296 38.8383 43.2014 38.915C42.9732 38.9917 42.7641 39.1163 42.588 39.2805C42.5705 39.2735 42.336 39.473 39.8055 42.539C39.6603 42.7341 39.4602 42.8816 39.2308 42.9627C39.0014 43.0437 38.7531 43.0546 38.5175 42.994C38.2895 42.9328 38.0661 42.8556 37.849 42.763C37.415 42.581 37.2645 42.511 36.967 42.385C34.9583 41.5084 33.0984 40.324 31.4545 38.8745C31.0135 38.4895 30.604 38.0695 30.184 37.6635C28.8071 36.3448 27.6071 34.853 26.614 33.2255L26.4075 32.893C26.2592 32.6696 26.1393 32.4285 26.0505 32.1755C25.9175 31.661 26.264 31.248 26.264 31.248C26.264 31.248 27.1145 30.317 27.51 29.813C27.895 29.323 28.2205 28.847 28.4305 28.5075C28.8435 27.8425 28.973 27.16 28.756 26.6315C27.776 24.2375 26.761 21.854 25.718 19.488C25.5115 19.019 24.899 18.683 24.3425 18.6165C24.1535 18.5955 23.9645 18.5745 23.7755 18.5605C23.3055 18.5371 22.8345 18.5418 22.365 18.5745L23.0685 18.5465L23.072 18.55Z" fill="#00873F"/>
</svg>
